<?xml version="1.0" encoding="UTF-8"?>
<svg id="Ebene_2" xmlns="http://www.w3.org/2000/svg" xmlns:xlink="http://www.w3.org/1999/xlink" viewBox="0 0 95.22 95.2">
  <defs>
    <style>
      .cls-1 {
        fill: #fff;
      }

      .cls-2 {
        fill: none;
      }

      .cls-3 {
        fill: #f6c900;
      }

      .cls-4 {
        clip-path: url(#clippath);
      }
    </style>
    <clipPath id="clippath">
      <path class="cls-2" d="M17.17,47.59c0-16.81,13.63-30.44,30.44-30.44s30.44,13.63,30.44,30.44-13.63,30.44-30.44,30.44-30.44-13.63-30.44-30.44M46.29,0C20.61.7,0,21.74,0,47.59s21.32,47.61,47.61,47.61,47.61-21.32,47.61-47.61S74.61.7,48.93,0h-2.64Z"/>
    </clipPath>
  </defs>
  <g id="Ebene_1-2" data-name="Ebene_1">
    <g class="cls-4">
      <path class="cls-3" d="M47.61,47.59L47.68-.02c26.09.04,47.54,21.52,47.54,47.61s-21.49,47.31-47.61,47.61c-17.04.2-28.66-5.75-39.15-19.93l39.15-27.68Z"/>
      <path class="cls-1" d="M0,47.59C0,21.3,21.32-.02,47.61-.02s47.61,21.32,47.61,47.61-21.32,47.61-47.61,47.61S0,73.89,0,47.59"/>
    </g>
  </g>
</svg>