<?xml version="1.0" encoding="UTF-8"?>
<svg id="Ebene_1" xmlns="http://www.w3.org/2000/svg" viewBox="0 0 356.75 647.81">
  <defs>
    <style>
      .cls-1 {
        fill: none;
        fill-rule: evenodd;
      }
    </style>
  </defs>
  <path class="cls-1" d="M341.04,591.03c.35,2.94,2.4,4.84,3.36,6.96,1.52,3.36,1.37,6.52,3.12,9.6,2.18,3.84,5.18,8.84,6.96,12.72,1.33,2.9,3.45,10.08,1.44,13.44-3.31,5.53-10.45,4.46-17.04,6.96-12.06,4.58-38.74,9.02-55.44,6.24-11.02-1.84-21.77.54-28.8-4.8-.66-2.36-.66-4.39,0-6.72,4.27-2.74,10.66-2.9,15.84-5.76,2.4-1.32,3.34-5.25,5.52-6.48.88-.08,1.76-.16,2.64-.24,6-4.78,11.86-6.59,16.8-12.72-.32-1.36-.64-2.72-.96-4.08,1.04-.88,2.08-1.76,3.12-2.64,2.49-.96,5.32-.21,6.72-2.16,10.69-14.86-1.37-37.53-8.16-50.88-6-11.8-12.11-24.6-17.76-36.72-4.09-8.79-6.22-18.46-11.04-26.4-3.04-3.12-6.08-6.24-9.12-9.36-3.49-4.59-6.95-9.15-10.32-13.68-4.58-6.16-5.54-15.49-10.32-21.6-.8-.32-1.6-.64-2.4-.96-.56-1.04-1.12-2.08-1.68-3.12-7.57.12-19.11,1-26.88,2.4-4.16.08-8.32.16-12.48.24-4.45.95-11.77,4.66-16.08,2.4-.88-4.64-1.76-9.28-2.64-13.92l-.48-.24-.48.24c-4.06,8.84-12.17,15.75-16.08,25.2-.56,3.12-1.12,6.24-1.68,9.36-1.04,2.88-2.08,5.76-3.12,8.64-2.9,11.35-3.95,21.57-6.96,31.92-5.1,17.57-14.09,31.43-22.32,45.84-6.35,11.12-11.35,24.07-18,34.32-2.1,3.24-1.96,7.44-3.36,10.8-1.12,2.4-2.24,4.8-3.36,7.2.16,2.64.32,5.28.48,7.92-.59,8.28-.83,19.28-5.52,24.24-6.12,1.97-19.46-3.84-25.68-5.76-8.95-2.76-17.54-6.68-25.92-10.08-5.73-2.32-11.11-3.63-15.84-6.48-3.57-2.15-8.67-2.66-11.52-5.52-2.73-2.75-5.6-5.49-8.64-7.92-2.62-2.09-5.37-3.84-6.96-6.96.46-3,2.27-4.37,4.08-6,3.89.28,11.95,1.53,15.36,3.36.92.49,1.78,1.93,3.12,2.16,3.13.54,5.94-1.81,8.4-2.4h12.96c5.16-1.68,10.77-5.33,15.36-7.92,4.4-1.2,8.8-2.4,13.2-3.6,2.61-.93,3.36-4.31,5.52-5.76,1.61-1.08,3.7-1.09,4.8-2.64,1.6-3.44,3.2-6.88,4.8-10.32,7.33-16.66,12.12-35.95,18.48-54.48,3.86-11.25,10.22-20.65,12.72-32.4v-12c1.22-7.57.53-14.17,2.4-21.12,4.16-10.08,8.32-20.16,12.48-30.24,1.2-6.4,2.4-12.8,3.6-19.2,1.95-5.78,4.38-10.94,3.84-17.52,3.28-.37,3.29-3.88,4.32-6.48,3.25-8.24,6.06-16.05,8.88-25.2,1.13-3.67,3.97-6.18,5.04-9.36v-3.36c.52-1.15,2.49-1.33,2.88-3.12-.24-.88-.48-1.76-.72-2.64v-15.84c.56-15.92,1.12-31.84,1.68-47.76.32-4.56.64-9.12.96-13.68,1.08-3.35,3.29-15.47,2.16-19.68-.62-2.3-3.52-2.33-4.32-4.08-1.01-2.21-.05-4.08-1.2-5.76-1.1-1.61-11.89-9.38-13.92-9.84-6.54-1.47-16.06-.35-20.88-3.36-1.02-.64-2.8-6.11-3.84-7.44-1.04-.88-2.08-1.76-3.12-2.64-.4-1.44-.8-2.88-1.2-4.32-2.08-1.28-4.16-2.56-6.24-3.84-.24-1.44-.48-2.88-.72-4.32-2.74-.97-5.25-4.51-5.04-8.4.07-1.37.73-2.41.24-3.84-2.61-5.41-8.22-7.7-11.04-14.4l.96-1.44h.96c8.8,8.24,17.6,16.48,26.4,24.72,2.13.92,11.47,2.59,12.96,1.92,1.12-5.71-3.18-5.69-5.04-8.88l.24-.96c3.17-.34,2.41-2.55,6-2.88,6.15,3.5,7.23,13.57,15.12,15.36l.24-.24c0-3.26,1.19-3.42,1.92-5.28-.39-.77-.82-2.6-.24-3.6,1.04-.96,2.08-1.92,3.12-2.88-.08-1.2-.16-2.4-.24-3.6.26-.85,3.35-3.66,4.08-4.08,1.68-.24,3.36-.48,5.04-.72.96-1.68,1.92-3.36,2.88-5.04,4.97-7.91,7.03-9.15,9.12-20.88-.24-1.6-.48-3.2-.72-4.8v-15.36c-.64-2.32-1.28-4.64-1.92-6.96-1.11-6.29.6-11.22-3.84-13.92-4.49-2.73-15.51,1.69-18.72-2.64v-.24c-1.96-2.98.79-4.34.24-7.44-.29-1.65-1.96-2.42-1.92-4.32.05-2.07,1.65-2.78,1.68-6-4.18-2.81-3.7-24.93,1.44-28.8l.96.48c0,1.74.29,2.36,1.2,3.12l.72-.48c2.33-8.24,7.8-13.53,12.24-19.68,1.56-2.16,5.42-2.74,4.56-5.28.81-.43,2.31-6.2,5.52-8.4l-.24.48c.64-.53.14-.61.96-1.2l.72-.48c-.57,1.3-.78.95-.72,2.64h.48c.16-.72.32-1.44.48-2.16,1.44.33,12.39-8.78,15.84-10.32,16.75-7.48,25.79,1.12,31.2,13.44.8,3.2,1.6,6.4,2.4,9.6,1.41.09,1.46.33,2.4.72l-.48.24c-.56.82-.54.81-1.2.96l.24.72h2.16c.02,1.73-.28,1.58.48,1.92-.39,1.04-.59,1.23-1.2,1.92.95.03.5-.22,1.2.24-.47,1.4-.68.97,0,2.16.05.03,4.32,4.8,4.32,4.8-.16.8-.32,1.6-.48,2.4,1.04.61,2.14,1.22,2.64,2.4-6.7,3.79-1.26,16.09-2.88,22.56-1.55,6.16-18.67,18.58-24.48,21.36-.81,3-1.54,9.02,1.2,10.56,5.47,2.57,13.28.37,18.96,2.88,5.15,2.28,10.67,9.28,13.92,13.68,3.69,5,7.3,10.87,9.84,16.8.48,2.08.96,4.16,1.44,6.24,1.76,2.56,3.52,5.12,5.28,7.68,2.04,4.87,2.58,9.51,5.52,13.44.85,1.13,4.37,2.08,5.52,2.88-.12,1.82-.65,1.87-1.44,2.88.64,1.2,1.28,2.4,1.92,3.6,2.21-.15,2.76-.2,4.08.72.97,2.87,6.38,4.74,5.28,7.92-.96,1.04-1.92,2.08-2.88,3.12.32,1.12.64,2.24.96,3.36,3.27.86,6.33,6.93,7.2,10.08.85,3.09-1.48,5.54-.72,6.96,2.25,5.07,3.02,18.56-2.16,22.08-3.1,2.11-7.59-.31-10.32.72l-.24.48c5.68,19.04,11.36,38.08,17.04,57.12,1.34,3.13,3.8,6.4,4.8,9.36-.08,1.36-.16,2.72-.24,4.08,1.28,1.6,2.56,3.2,3.84,4.8,1.13,2.31.16,4.88.72,7.44,1.44,6.58,4.8,13.52,8.4,18.24,2.4,2.08,4.8,4.16,7.2,6.24,8.44,8.44,26.37,26.33,29.52,38.64-.24,1.12-.48,2.24-.72,3.36.9,11.19-4.52,19.07-12.24,25.44-.8,1.12-1.6,2.24-2.4,3.36-10.06,7.89-18.65,17.05-28.32,25.2-7.44,4.56-14.88,9.12-22.32,13.68.67,4.98,5.05,9.1,6.96,13.44,1.6,4,3.2,8,4.8,12,5.69,9.32,13.09,19.02,17.52,29.52,8.34,19.77,13.28,43.94,19.2,65.52,1.76,7.6,3.52,15.2,5.28,22.8,1.04,2.16,2.08,4.32,3.12,6.48h1.68Z"/>
  <path class="cls-1" d="M234.96,31.35l.24.48-.24-.48Z"/>
  <path class="cls-1" d="M177.36,107.43c.64,3.68,1.28,7.36,1.92,11.04.43,3.08-.91,7.05.24,9.84.66-7.77,1.67-15.54-2.16-20.88Z"/>
  <path class="cls-1" d="M181.92,117.75c-.56,3.92-1.12,7.84-1.68,11.76v10.32c-2.12,8.32-7.32,14.3-11.04,20.88h1.2c5.24-8.47,21.54-33.11,11.52-42.96Z"/>
  <path class="cls-1" d="M274.56,223.83c-.53,3.66.93,6.19,1.68,9.12,2.44,9.59,3.59,18.32,6.48,26.64,1.28,6.16,2.56,12.32,3.84,18.48,2.62,11.09,4.86,23.06,6.72,35.04,2.05.46,4.74,1.04,6.72.72.4-.56.8-1.12,1.2-1.68-1.32-3.28-3.79-6.73-4.8-9.6.16-2.72.32-5.44.48-8.16-.88-1.04-1.76-2.08-2.64-3.12-.16-2.48-.32-4.96-.48-7.44-3.76-11.92-7.52-23.84-11.28-35.76-1.13-3.59-6.34-22.95-7.92-24.24Z"/>
  <path class="cls-1" d="M298.32,299.67l-.72.96v2.16c.51,1.16.86,1.56,1.92,2.16.72-.24,1.44-.48,2.16-.72v-1.2c-.72-1.6-1.44-2.92-3.36-3.36Z"/>
</svg>