<?xml version="1.0" encoding="UTF-8"?>
<svg id="Ebene_1" xmlns="http://www.w3.org/2000/svg" viewBox="0 0 1517 883">
  <defs>
    <style>
      .cls-1 {
        fill: none;
        fill-rule: evenodd;
      }
    </style>
  </defs>
  <path class="cls-1" d="M1491,767c.36-10.28.63-21.98-3-28-13.8-5.09-33.21-4.57-51-4,.07-127.79-1.78-256.49-2-383l5-2v-1l-266-71-84,22c-.37-24.04-1.65-52.68,6-68h-2c-43.33-13.33-86.67-26.67-130-40l-246-73-40,16-119-35L201,0C138.01,60.99,74.99,122.01,12,183v7c9.63,2.56,6,18.7,6,30v493c-6.46,25.65,7.4,66.92-3,90l-15,9,1,2c71.33,23,142.67,46,214,69l196-18c37.64-5.8,75.27-4.01,110-10l33-5-42-15-22-4,95-8,88,20c195.65-17,391.35-34,587-51l190-17c19.81-3.19,51.56,2.42,67-7l-26-1Z"/>
</svg>