<?xml version="1.0" encoding="UTF-8"?>
<svg id="Ebene_2" xmlns="http://www.w3.org/2000/svg" viewBox="0 0 423 86.93">
  <defs>
    <style>
      .cls-1 {
        fill: #fad863;
      }

      .cls-2 {
        fill: #fae8a2;
      }

      .cls-3 {
        fill: #8d0439;
      }

      .cls-4 {
        fill: #f0a35e;
      }
    </style>
  </defs>
  <g id="Ebene_1-2" data-name="Ebene_1">
    <g>
      <rect class="cls-2" x="14.03" y=".57" width="408.97" height="74.34"/>
      <g>
        <path class="cls-3" d="M28.31,20.73c.88-.18,2.14-.28,3.34-.28,1.86,0,3.06.34,3.9,1.1.68.6,1.06,1.52,1.06,2.56,0,1.78-1.12,2.96-2.54,3.44v.06c1.04.36,1.66,1.32,1.98,2.72.44,1.88.76,3.18,1.04,3.7h-1.8c-.22-.38-.52-1.54-.9-3.22-.4-1.86-1.12-2.56-2.7-2.62h-1.64v5.84h-1.74v-13.3ZM30.05,26.87h1.78c1.86,0,3.04-1.02,3.04-2.56,0-1.74-1.26-2.5-3.1-2.52-.84,0-1.44.08-1.72.16v4.92Z"/>
        <path class="cls-3" d="M39.91,29.52c.04,2.38,1.56,3.36,3.32,3.36,1.26,0,2.02-.22,2.68-.5l.3,1.26c-.62.28-1.68.6-3.22.6-2.98,0-4.76-1.96-4.76-4.88s1.72-5.22,4.54-5.22c3.16,0,4,2.78,4,4.56,0,.36-.04.64-.06.82h-6.8ZM45.07,28.25c.02-1.12-.46-2.86-2.44-2.86-1.78,0-2.56,1.64-2.7,2.86h5.14Z"/>
        <path class="cls-3" d="M55.85,33.68c-.46.24-1.48.56-2.78.56-2.92,0-4.82-1.98-4.82-4.94s2.04-5.14,5.2-5.14c1.04,0,1.96.26,2.44.5l-.4,1.36c-.42-.24-1.08-.46-2.04-.46-2.22,0-3.42,1.64-3.42,3.66,0,2.24,1.44,3.62,3.36,3.62,1,0,1.66-.26,2.16-.48l.3,1.32Z"/>
        <path class="cls-3" d="M57.91,19.83h1.76v6.04h.04c.28-.5.72-.94,1.26-1.24.52-.3,1.14-.5,1.8-.5,1.3,0,3.38.8,3.38,4.14v5.76h-1.76v-5.56c0-1.56-.58-2.88-2.24-2.88-1.14,0-2.04.8-2.36,1.76-.1.24-.12.5-.12.84v5.84h-1.76v-14.2Z"/>
        <path class="cls-3" d="M71.05,21.57v2.78h2.52v1.34h-2.52v5.22c0,1.2.34,1.88,1.32,1.88.46,0,.8-.06,1.02-.12l.08,1.32c-.34.14-.88.24-1.56.24-.82,0-1.48-.26-1.9-.74-.5-.52-.68-1.38-.68-2.52v-5.28h-1.5v-1.34h1.5v-2.32l1.72-.46Z"/>
        <path class="cls-3" d="M74.45,33.02l4.38-5.7c.42-.52.82-.98,1.26-1.5v-.04h-5.24v-1.42h7.38l-.02,1.1-4.32,5.62c-.4.54-.8,1.02-1.24,1.52v.04h5.66v1.4h-7.86v-1.02Z"/>
        <path class="cls-3" d="M85.09,29.52c.04,2.38,1.56,3.36,3.32,3.36,1.26,0,2.02-.22,2.68-.5l.3,1.26c-.62.28-1.68.6-3.22.6-2.98,0-4.76-1.96-4.76-4.88s1.72-5.22,4.54-5.22c3.16,0,4,2.78,4,4.56,0,.36-.04.64-.06.82h-6.8ZM90.25,28.25c.02-1.12-.46-2.86-2.44-2.86-1.78,0-2.56,1.64-2.7,2.86h5.14Z"/>
        <path class="cls-3" d="M96.09,21.63c.02.6-.42,1.08-1.12,1.08-.62,0-1.06-.48-1.06-1.08s.46-1.1,1.1-1.1,1.08.48,1.08,1.1ZM94.13,34.04v-9.68h1.76v9.68h-1.76Z"/>
        <path class="cls-3" d="M100.85,21.57v2.78h2.52v1.34h-2.52v5.22c0,1.2.34,1.88,1.32,1.88.46,0,.8-.06,1.02-.12l.08,1.32c-.34.14-.88.24-1.56.24-.82,0-1.48-.26-1.9-.74-.5-.52-.68-1.38-.68-2.52v-5.28h-1.5v-1.34h1.5v-2.32l1.72-.46Z"/>
        <path class="cls-3" d="M107.31,21.63c.02.6-.42,1.08-1.12,1.08-.62,0-1.06-.48-1.06-1.08s.46-1.1,1.1-1.1,1.08.48,1.08,1.1ZM105.35,34.04v-9.68h1.76v9.68h-1.76Z"/>
        <path class="cls-3" d="M118.37,24.35c-.04.7-.08,1.48-.08,2.66v5.62c0,2.22-.44,3.58-1.38,4.42-.94.88-2.3,1.16-3.52,1.16s-2.44-.28-3.22-.8l.44-1.34c.64.4,1.64.76,2.84.76,1.8,0,3.12-.94,3.12-3.38v-1.08h-.04c-.54.9-1.58,1.62-3.08,1.62-2.4,0-4.12-2.04-4.12-4.72,0-3.28,2.14-5.14,4.36-5.14,1.68,0,2.6.88,3.02,1.68h.04l.08-1.46h1.54ZM116.55,28.17c0-.3-.02-.56-.1-.8-.32-1.02-1.18-1.86-2.46-1.86-1.68,0-2.88,1.42-2.88,3.66,0,1.9.96,3.48,2.86,3.48,1.08,0,2.06-.68,2.44-1.8.1-.3.14-.64.14-.94v-1.74Z"/>
        <path class="cls-3" d="M126.13,24.35l1.9,5.44c.32.88.58,1.68.78,2.48h.06c.22-.8.5-1.6.82-2.48l1.88-5.44h1.84l-3.8,9.68h-1.68l-3.68-9.68h1.88Z"/>
        <path class="cls-3" d="M143.83,29.12c0,3.58-2.48,5.14-4.82,5.14-2.62,0-4.64-1.92-4.64-4.98,0-3.24,2.12-5.14,4.8-5.14s4.66,2.02,4.66,4.98ZM136.15,29.22c0,2.12,1.22,3.72,2.94,3.72s2.94-1.58,2.94-3.76c0-1.64-.82-3.72-2.9-3.72s-2.98,1.92-2.98,3.76Z"/>
        <path class="cls-3" d="M146.05,27.37c0-1.14-.02-2.12-.08-3.02h1.54l.06,1.9h.08c.44-1.3,1.5-2.12,2.68-2.12.2,0,.34.02.5.06v1.66c-.18-.04-.36-.06-.6-.06-1.24,0-2.12.94-2.36,2.26-.04.24-.08.52-.08.82v5.16h-1.74v-6.66Z"/>
        <path class="cls-3" d="M152.35,32.24c.52.34,1.44.7,2.32.7,1.28,0,1.88-.64,1.88-1.44,0-.84-.5-1.3-1.8-1.78-1.74-.62-2.56-1.58-2.56-2.74,0-1.56,1.26-2.84,3.34-2.84.98,0,1.84.28,2.38.6l-.44,1.28c-.38-.24-1.08-.56-1.98-.56-1.04,0-1.62.6-1.62,1.32,0,.8.58,1.16,1.84,1.64,1.68.64,2.54,1.48,2.54,2.92,0,1.7-1.32,2.9-3.62,2.9-1.06,0-2.04-.26-2.72-.66l.44-1.34Z"/>
        <path class="cls-3" d="M169.27,29.12c0,3.58-2.48,5.14-4.82,5.14-2.62,0-4.64-1.92-4.64-4.98,0-3.24,2.12-5.14,4.8-5.14s4.66,2.02,4.66,4.98ZM161.59,29.22c0,2.12,1.22,3.72,2.94,3.72s2.94-1.58,2.94-3.76c0-1.64-.82-3.72-2.9-3.72s-2.98,1.92-2.98,3.76Z"/>
        <path class="cls-3" d="M171.49,27.37c0-1.14-.02-2.12-.08-3.02h1.54l.06,1.9h.08c.44-1.3,1.5-2.12,2.68-2.12.2,0,.34.02.5.06v1.66c-.18-.04-.36-.06-.6-.06-1.24,0-2.12.94-2.36,2.26-.04.24-.08.52-.08.82v5.16h-1.74v-6.66Z"/>
        <path class="cls-3" d="M186.37,24.35c-.04.7-.08,1.48-.08,2.66v5.62c0,2.22-.44,3.58-1.38,4.42-.94.88-2.3,1.16-3.52,1.16s-2.44-.28-3.22-.8l.44-1.34c.64.4,1.64.76,2.84.76,1.8,0,3.12-.94,3.12-3.38v-1.08h-.04c-.54.9-1.58,1.62-3.08,1.62-2.4,0-4.12-2.04-4.12-4.72,0-3.28,2.14-5.14,4.36-5.14,1.68,0,2.6.88,3.02,1.68h.04l.08-1.46h1.54ZM184.55,28.17c0-.3-.02-.56-.1-.8-.32-1.02-1.18-1.86-2.46-1.86-1.68,0-2.88,1.42-2.88,3.66,0,1.9.96,3.48,2.86,3.48,1.08,0,2.06-.68,2.44-1.8.1-.3.14-.64.14-.94v-1.74Z"/>
        <path class="cls-3" d="M190.19,29.52c.04,2.38,1.56,3.36,3.32,3.36,1.26,0,2.02-.22,2.68-.5l.3,1.26c-.62.28-1.68.6-3.22.6-2.98,0-4.76-1.96-4.76-4.88s1.72-5.22,4.54-5.22c3.16,0,4,2.78,4,4.56,0,.36-.04.64-.06.82h-6.8ZM195.35,28.25c.02-1.12-.46-2.86-2.44-2.86-1.78,0-2.56,1.64-2.7,2.86h5.14Z"/>
        <path class="cls-3" d="M199.23,26.97c0-1-.02-1.82-.08-2.62h1.56l.1,1.6h.04c.48-.92,1.6-1.82,3.2-1.82,1.34,0,3.42.8,3.42,4.12v5.78h-1.76v-5.58c0-1.56-.58-2.86-2.24-2.86-1.16,0-2.06.82-2.36,1.8-.08.22-.12.52-.12.82v5.82h-1.76v-7.06Z"/>
        <path class="cls-3" d="M222.51,28.35v1.2h-8.8v-1.2h8.8Z"/>
        <path class="cls-3" d="M236.91,31.4c0,1,.02,1.88.08,2.64h-1.56l-.1-1.58h-.04c-.46.78-1.48,1.8-3.2,1.8-1.52,0-3.34-.84-3.34-4.24v-5.66h1.76v5.36c0,1.84.56,3.08,2.16,3.08,1.18,0,2-.82,2.32-1.6.1-.26.16-.58.16-.9v-5.94h1.76v7.04Z"/>
        <path class="cls-3" d="M239.82,26.97c0-1-.02-1.82-.08-2.62h1.56l.1,1.6h.04c.48-.92,1.6-1.82,3.2-1.82,1.34,0,3.42.8,3.42,4.12v5.78h-1.76v-5.58c0-1.56-.58-2.86-2.24-2.86-1.16,0-2.06.82-2.36,1.8-.08.22-.12.52-.12.82v5.82h-1.76v-7.06Z"/>
        <path class="cls-3" d="M259.29,19.83v11.7c0,.86.02,1.84.08,2.5h-1.58l-.08-1.68h-.04c-.54,1.08-1.72,1.9-3.3,1.9-2.34,0-4.14-1.98-4.14-4.92-.02-3.22,1.98-5.2,4.34-5.2,1.48,0,2.48.7,2.92,1.48h.04v-5.78h1.76ZM257.53,28.29c0-.22-.02-.52-.08-.74-.26-1.12-1.22-2.04-2.54-2.04-1.82,0-2.9,1.6-2.9,3.74,0,1.96.96,3.58,2.86,3.58,1.18,0,2.26-.78,2.58-2.1.06-.24.08-.48.08-.76v-1.68Z"/>
        <path class="cls-3" d="M266.2,32.24c.52.34,1.44.7,2.32.7,1.28,0,1.88-.64,1.88-1.44,0-.84-.5-1.3-1.8-1.78-1.74-.62-2.56-1.58-2.56-2.74,0-1.56,1.26-2.84,3.34-2.84.98,0,1.84.28,2.38.6l-.44,1.28c-.38-.24-1.08-.56-1.98-.56-1.04,0-1.62.6-1.62,1.32,0,.8.58,1.16,1.84,1.64,1.68.64,2.54,1.48,2.54,2.92,0,1.7-1.32,2.9-3.62,2.9-1.06,0-2.04-.26-2.72-.66l.44-1.34Z"/>
        <path class="cls-3" d="M274.36,27.51c0-1.24-.04-2.24-.08-3.16h1.58l.08,1.66h.04c.72-1.18,1.86-1.88,3.44-1.88,2.34,0,4.1,1.98,4.1,4.92,0,3.48-2.12,5.2-4.4,5.2-1.28,0-2.4-.56-2.98-1.52h-.04v5.26h-1.74v-10.48ZM276.1,30.1c0,.26.04.5.08.72.32,1.22,1.38,2.06,2.64,2.06,1.86,0,2.94-1.52,2.94-3.74,0-1.94-1.02-3.6-2.88-3.6-1.2,0-2.32.86-2.66,2.18-.06.22-.12.48-.12.72v1.66Z"/>
        <path class="cls-3" d="M291.1,34.04l-.14-1.22h-.06c-.54.76-1.58,1.44-2.96,1.44-1.96,0-2.96-1.38-2.96-2.78,0-2.34,2.08-3.62,5.82-3.6v-.2c0-.8-.22-2.24-2.2-2.24-.9,0-1.84.28-2.52.72l-.4-1.16c.8-.52,1.96-.86,3.18-.86,2.96,0,3.68,2.02,3.68,3.96v3.62c0,.84.04,1.66.16,2.32h-1.6ZM286.24,21.61c0-.56.46-1.02,1.02-1.02s.98.44.98,1.02c0,.54-.4,1.02-.98,1.02s-1.02-.48-1.02-1.02ZM290.85,29.1c-1.92-.04-4.1.3-4.1,2.18,0,1.14.76,1.68,1.66,1.68,1.26,0,2.06-.8,2.34-1.62.06-.18.1-.38.1-.56v-1.68ZM289.96,21.61c0-.56.44-1.02,1-1.02s.98.44.98,1.02c0,.54-.4,1.02-.98,1.02s-1-.48-1-1.02Z"/>
        <path class="cls-3" d="M297.5,21.57v2.78h2.52v1.34h-2.52v5.22c0,1.2.34,1.88,1.32,1.88.46,0,.8-.06,1.02-.12l.08,1.32c-.34.14-.88.24-1.56.24-.82,0-1.48-.26-1.9-.74-.5-.52-.68-1.38-.68-2.52v-5.28h-1.5v-1.34h1.5v-2.32l1.72-.46Z"/>
        <path class="cls-3" d="M302.98,29.52c.04,2.38,1.56,3.36,3.32,3.36,1.26,0,2.02-.22,2.68-.5l.3,1.26c-.62.28-1.68.6-3.22.6-2.98,0-4.76-1.96-4.76-4.88s1.72-5.22,4.54-5.22c3.16,0,4,2.78,4,4.56,0,.36-.04.64-.06.82h-6.8ZM308.15,28.25c.02-1.12-.46-2.86-2.44-2.86-1.78,0-2.56,1.64-2.7,2.86h5.14Z"/>
        <path class="cls-3" d="M312.02,27.37c0-1.14-.02-2.12-.08-3.02h1.54l.06,1.9h.08c.44-1.3,1.5-2.12,2.68-2.12.2,0,.34.02.5.06v1.66c-.18-.04-.36-.06-.6-.06-1.24,0-2.12.94-2.36,2.26-.04.24-.08.52-.08.82v5.16h-1.74v-6.66Z"/>
      </g>
      <g>
        <path class="cls-3" d="M28.01,55.24c.52.34,1.44.7,2.32.7,1.28,0,1.88-.64,1.88-1.44,0-.84-.5-1.3-1.8-1.78-1.74-.62-2.56-1.58-2.56-2.74,0-1.56,1.26-2.84,3.34-2.84.98,0,1.84.28,2.38.6l-.44,1.28c-.38-.24-1.08-.56-1.98-.56-1.04,0-1.62.6-1.62,1.32,0,.8.58,1.16,1.84,1.64,1.68.64,2.54,1.48,2.54,2.92,0,1.7-1.32,2.9-3.62,2.9-1.06,0-2.04-.26-2.72-.66l.44-1.34Z"/>
        <path class="cls-3" d="M44.93,52.12c0,3.58-2.48,5.14-4.82,5.14-2.62,0-4.64-1.92-4.64-4.98,0-3.24,2.12-5.14,4.8-5.14s4.66,2.02,4.66,4.98ZM37.25,52.22c0,2.12,1.22,3.72,2.94,3.72s2.94-1.58,2.94-3.76c0-1.64-.82-3.72-2.9-3.72s-2.98,1.92-2.98,3.76Z"/>
        <path class="cls-3" d="M51.57,57.04v-8.34h-1.36v-1.34h1.36v-.42c0-1.34.46-2.54,1.36-3.34.76-.64,1.76-.98,3.1-.98,1.12,0,2.18.24,2.9.64v13.78h-1.74v-12.8c-.3-.16-.76-.26-1.44-.26-1.84,0-2.44,1.34-2.44,2.9v.48h2.26v1.34h-2.26v8.34h-1.74Z"/>
        <path class="cls-3" d="M62.83,52.52c.04,2.38,1.56,3.36,3.32,3.36,1.26,0,2.02-.22,2.68-.5l.3,1.26c-.62.28-1.68.6-3.22.6-2.98,0-4.76-1.96-4.76-4.88s1.72-5.22,4.54-5.22c3.16,0,4,2.78,4,4.56,0,.36-.04.64-.06.82h-6.8ZM67.99,51.25c.02-1.12-.46-2.86-2.44-2.86-1.78,0-2.56,1.64-2.7,2.86h5.14Z"/>
        <path class="cls-3" d="M72.69,47.35l1.38,2.08c.36.54.66,1.04.98,1.58h.06c.32-.58.64-1.08.96-1.6l1.36-2.06h1.9l-3.3,4.68,3.4,5h-2l-1.42-2.18c-.38-.56-.7-1.1-1.04-1.68h-.04c-.32.58-.66,1.1-1.02,1.68l-1.4,2.18h-1.94l3.44-4.94-3.28-4.74h1.96Z"/>
        <path class="cls-3" d="M83.09,44.63c.02.6-.42,1.08-1.12,1.08-.62,0-1.06-.48-1.06-1.08s.46-1.1,1.1-1.1,1.08.48,1.08,1.1ZM81.13,57.04v-9.68h1.76v9.68h-1.76Z"/>
        <path class="cls-3" d="M85.73,57.04c.04-.66.08-1.64.08-2.5v-11.7h1.74v6.08h.04c.62-1.08,1.74-1.78,3.3-1.78,2.4,0,4.1,2,4.08,4.94,0,3.46-2.18,5.18-4.34,5.18-1.4,0-2.52-.54-3.24-1.82h-.06l-.08,1.6h-1.52ZM87.55,53.16c0,.22.04.44.08.64.34,1.22,1.36,2.06,2.64,2.06,1.84,0,2.94-1.5,2.94-3.72,0-1.94-1-3.6-2.88-3.6-1.2,0-2.32.82-2.68,2.16-.04.2-.1.44-.1.72v1.74Z"/>
        <path class="cls-3" d="M98.17,52.52c.04,2.38,1.56,3.36,3.32,3.36,1.26,0,2.02-.22,2.68-.5l.3,1.26c-.62.28-1.68.6-3.22.6-2.98,0-4.76-1.96-4.76-4.88s1.72-5.22,4.54-5.22c3.16,0,4,2.78,4,4.56,0,.36-.04.64-.06.82h-6.8ZM103.33,51.25c.02-1.12-.46-2.86-2.44-2.86-1.78,0-2.56,1.64-2.7,2.86h5.14Z"/>
        <path class="cls-3" d="M107.21,42.83h1.76v14.2h-1.76v-14.2Z"/>
        <path class="cls-3" d="M115.93,55.24c.52.34,1.44.7,2.32.7,1.28,0,1.88-.64,1.88-1.44,0-.84-.5-1.3-1.8-1.78-1.74-.62-2.56-1.58-2.56-2.74,0-1.56,1.26-2.84,3.34-2.84.98,0,1.84.28,2.38.6l-.44,1.28c-.38-.24-1.08-.56-1.98-.56-1.04,0-1.62.6-1.62,1.32,0,.8.58,1.16,1.84,1.64,1.68.64,2.54,1.48,2.54,2.92,0,1.7-1.32,2.9-3.62,2.9-1.06,0-2.04-.26-2.72-.66l.44-1.34Z"/>
        <path class="cls-3" d="M125.07,52.52c.04,2.38,1.56,3.36,3.32,3.36,1.26,0,2.02-.22,2.68-.5l.3,1.26c-.62.28-1.68.6-3.22.6-2.98,0-4.76-1.96-4.76-4.88s1.72-5.22,4.54-5.22c3.16,0,4,2.78,4,4.56,0,.36-.04.64-.06.82h-6.8ZM130.23,51.25c.02-1.12-.46-2.86-2.44-2.86-1.78,0-2.56,1.64-2.7,2.86h5.14Z"/>
        <path class="cls-3" d="M136.07,44.63c.02.6-.42,1.08-1.12,1.08-.62,0-1.06-.48-1.06-1.08s.46-1.1,1.1-1.1,1.08.48,1.08,1.1ZM134.11,57.04v-9.68h1.76v9.68h-1.76Z"/>
        <path class="cls-3" d="M138.79,49.97c0-1-.02-1.82-.08-2.62h1.56l.1,1.6h.04c.48-.92,1.6-1.82,3.2-1.82,1.34,0,3.42.8,3.42,4.12v5.78h-1.76v-5.58c0-1.56-.58-2.86-2.24-2.86-1.16,0-2.06.82-2.36,1.8-.08.22-.12.52-.12.82v5.82h-1.76v-7.06Z"/>
        <path class="cls-3" d="M154.83,47.35l1.28,4.92c.28,1.08.54,2.08.72,3.08h.06c.22-.98.54-2.02.86-3.06l1.58-4.94h1.48l1.5,4.84c.36,1.16.64,2.18.86,3.16h.06c.16-.98.42-2,.74-3.14l1.38-4.86h1.74l-3.12,9.68h-1.6l-1.48-4.62c-.34-1.08-.62-2.04-.86-3.18h-.04c-.24,1.16-.54,2.16-.88,3.2l-1.56,4.6h-1.6l-2.92-9.68h1.8Z"/>
        <path class="cls-3" d="M170.81,44.63c.02.6-.42,1.08-1.12,1.08-.62,0-1.06-.48-1.06-1.08s.46-1.1,1.1-1.1,1.08.48,1.08,1.1ZM168.85,57.04v-9.68h1.76v9.68h-1.76Z"/>
        <path class="cls-3" d="M174.51,52.52c.04,2.38,1.56,3.36,3.32,3.36,1.26,0,2.02-.22,2.68-.5l.3,1.26c-.62.28-1.68.6-3.22.6-2.98,0-4.76-1.96-4.76-4.88s1.72-5.22,4.54-5.22c3.16,0,4,2.78,4,4.56,0,.36-.04.64-.06.82h-6.8ZM179.67,51.25c.02-1.12-.46-2.86-2.44-2.86-1.78,0-2.56,1.64-2.7,2.86h5.14Z"/>
        <path class="cls-3" d="M187.79,42.83h1.76v6.04h.04c.28-.5.72-.94,1.26-1.24.52-.3,1.14-.5,1.8-.5,1.3,0,3.38.8,3.38,4.14v5.76h-1.76v-5.56c0-1.56-.58-2.88-2.24-2.88-1.14,0-2.04.8-2.36,1.76-.1.24-.12.5-.12.84v5.84h-1.76v-14.2Z"/>
        <path class="cls-3" d="M199.86,52.52c.04,2.38,1.56,3.36,3.32,3.36,1.26,0,2.02-.22,2.68-.5l.3,1.26c-.62.28-1.68.6-3.22.6-2.98,0-4.76-1.96-4.76-4.88s1.72-5.22,4.54-5.22c3.16,0,4,2.78,4,4.56,0,.36-.04.64-.06.82h-6.8ZM205.03,51.25c.02-1.12-.46-2.86-2.44-2.86-1.78,0-2.56,1.64-2.7,2.86h5.14Z"/>
        <path class="cls-3" d="M217.01,54.4c0,1,.02,1.88.08,2.64h-1.56l-.1-1.58h-.04c-.46.78-1.48,1.8-3.2,1.8-1.52,0-3.34-.84-3.34-4.24v-5.66h1.76v5.36c0,1.84.56,3.08,2.16,3.08,1.18,0,2-.82,2.32-1.6.1-.26.16-.58.16-.9v-5.94h1.76v7.04Z"/>
        <path class="cls-3" d="M221.94,44.57v2.78h2.52v1.34h-2.52v5.22c0,1.2.34,1.88,1.32,1.88.46,0,.8-.06,1.02-.12l.08,1.32c-.34.14-.88.24-1.56.24-.82,0-1.48-.26-1.9-.74-.5-.52-.68-1.38-.68-2.52v-5.28h-1.5v-1.34h1.5v-2.32l1.72-.46Z"/>
        <path class="cls-3" d="M227.42,52.52c.04,2.38,1.56,3.36,3.32,3.36,1.26,0,2.02-.22,2.68-.5l.3,1.26c-.62.28-1.68.6-3.22.6-2.98,0-4.76-1.96-4.76-4.88s1.72-5.22,4.54-5.22c3.16,0,4,2.78,4,4.56,0,.36-.04.64-.06.82h-6.8ZM232.59,51.25c.02-1.12-.46-2.86-2.44-2.86-1.78,0-2.56,1.64-2.7,2.86h5.14Z"/>
      </g>
      <polygon class="cls-1" points="0 18 0 86.88 14.03 74.91 14.03 0 0 18"/>
      <polygon class="cls-4" points="14.03 74.91 0 86.88 408.4 86.93 423 74.91 14.03 74.91"/>
    </g>
  </g>
</svg>