<?xml version="1.0" encoding="UTF-8"?>
<svg id="Ebene_1" xmlns="http://www.w3.org/2000/svg" viewBox="0 0 388.57 1275.12">
  <defs>
    <style>
      .cls-1 {
        fill: none;
        fill-rule: evenodd;
      }
    </style>
  </defs>
  <path class="cls-1" d="M377.28,1206.72c3.72.35,12.94,4.35,11.04,9.12-1.35,3.38-5.88,3.22-7.92,5.76-1.99,2.48-2.81,20.15-1.44,23.04,4.19,1.22,5.04,4.42,3.6,8.16-5.71,1.01-8.34,4.55-13.2,6.48-7.96,3.17-17.38,4.52-26.4,6.48-17.31,3.76-36.1,3.29-54.48,6.24-6.24.4-12.48.8-18.72,1.2-8.48.32-16.96.64-25.44.96-9.28.24-18.56.48-27.84.72-9.68.08-19.36.16-29.04.24h-16.56c-6.72-.16-13.44-.32-20.16-.48-16-.88-32-1.76-48-2.64-5.28-.32-10.56-.64-15.84-.96-18.85-3.18-38.11-3.51-54.96-8.16-6.91-1.9-17.06-3.13-20.88-8.16-3.42-4.5-.16-15.48-1.2-22.08-.61-3.89-1.06-7.81-1.92-11.04-3.32-1.49-7.87-3.14-7.92-7.92,1.52-3.06,7.36-7.41,11.04-6.48.21-4.89,4.46-5.28,5.52-9.84,1.85-7.97-.96-19.92,2.4-26.88,1.12-1.2,2.24-2.4,3.36-3.6.4-2.8.8-5.6,1.2-8.4.65-1.39,3.26-2.2,3.84-3.84-.4-2-.8-4-1.2-6v-.48c-.19-2.5,1.15-3.12,1.44-4.8.42-2.4-1.5-4.61-.24-6.72,2.16-3.62,9.66-6.51,14.16-7.68.4-215.66.8-431.38,1.2-647.04-10.92-1.51-24.14-3.75-33.84-7.2-3.48-1.24-8.2-2-8.64-6.24,1.5-1.57,4.69-2.99,5.76-4.8,1.13-2.32-1.45-2.82-.72-5.76.34-1.36,1.94-1.7,2.4-2.64v-8.88c-.31-.58-1.62-.81-1.92-1.68.08-6.96.16-13.92.24-20.88.33-1.31,1.61-1.87,1.92-2.88v-10.32c-.54-1.3-2.37-1.98-2.64-3.84.4-1.44.8-2.88,1.2-4.32-2.02-.94-7.15-3.35-5.76-6.72,3.15-7.13,26.3-9.71,35.76-11.76v-.24c-1.2.16-2.4.32-3.6.48,1.59-1.31,9.61-2.88,12-1.92-1.52.32-3.04.64-4.56.96,2.24-.24,4.48-.48,6.72-.72l.24-1.2c4.16-.56,8.32-1.12,12.48-1.68l.24-.72c.57-1.12.47-2.41,0-3.36-1.12-.64-2.24-1.28-3.36-1.92l.24-.48c1.28-.72,2.56-1.44,3.84-2.16.07-2.4.29-5.81-.48-7.44-1.2-.64-2.4-1.28-3.6-1.92l.24-.48c3.54-1.17,8.33-5.85,9.6-9.12,1.48-3.83.58-6.86,3.12-9.36-3.65-4.11-12.44-4.86-17.28-7.68-12.65-7.38-23.71-17.29-29.04-31.92-8.31-22.83,1.63-49.68,9.84-65.76,11.55-22.61,25.45-43.37,44.64-58.32,12.67-9.87,26.36-18.18,39.84-27.36,7.67-5.22,15.7-9.84,23.76-14.88,3.62-2.26,6.62-4.94,11.04-6.48,0-1.32-.07-1.39.72-1.92,2.08-.72,4.16-1.44,6.24-2.16-.09-2.26-.79-4.23,0-6,1.26-.32,2.44-.68,2.88-1.92h-1.2c.29-2.62,1.92-2.06,3.36-3.36-1.8-5.15-8.95-11.31-8.16-16.08,4.63-5.85,13.16-3.95,20.4-7.44l-1.2-.48c2.33-.57,3.4-2.55,5.04-3.84h.24c.05,1.04.06,1.16.48,1.68l1.2-.72c2.47-13.19-9.44-11.61-10.32-21.6,3.12-3.99,7.24-4.05,11.52-6.96h-1.92c1.86-2.22,6.64-1.9,8.64-4.08-.11-10.69-8.4-10.99-8.64-17.76,1.1-.79,7.4-4.36,7.44-5.04.64-1.71,2.16-4.77,1.68-6.48-1.19-1.55-2.42-1.32-2.64-4.08,1.11-1.19,2.33-1.59,3.6-2.64l-.96-.72c1.13-5.53,1.23-14.17,3.84-18.72h.24l1.2.72c1.4,6.11,1.51,17.1,5.76,20.64-.08.88-.16,1.76-.24,2.64-.48.88-1.87,1.23-2.16,1.92-2.09,5.08,7.58,9.02,8.64,11.04,2.46,4.67-9.79,9.69-7.68,18.96,4.85,3.32,15.76,3.37,17.52,9.6,2.79,9.9-15.83,9.5-8.16,21.36,5.01,7.75,19.26,3.49,24.48,12.72-.85,6.81-14.28,14.49-5.52,21.12-.89,1.38-.83,4.52-.24,5.76,2.16.72,4.32,1.44,6.48,2.16.08.64.16,1.28.24,1.92,5.26.3,10.17,5.47,13.92,7.92,9.65,6.31,19.68,11.54,28.8,18.24,10.71,7.87,22.04,14.49,32.4,22.56,20.22,15.74,36.17,38.88,47.04,63.84,5.86,13.46,13.94,33.68,8.88,53.76-4.35,17.26-15.04,28.86-28.56,36.96-3.02,1.81-16.61,5.87-18,7.92-1.1,1.86-.03,2.85.48,4.8,2.04,7.86,4.39,11.35,10.56,14.88l-.48.72c-1.12.64-2.24,1.28-3.36,1.92v7.2c1.28.72,2.56,1.44,3.84,2.16l-.48.72c-.8.56-1.6,1.12-2.4,1.68.32,1.28.64,2.56.96,3.84,18.34,3.51,49.14,4.71,59.04,16.08-.14,4.78-3.87,4.03-5.28,7.2.16,1.36.32,2.72.48,4.08-.36,1.72-2.17,2.47-2.64,3.84-1.75,5.14,1.35,9.94,2.4,12.24-.08,5.52-.16,11.04-.24,16.56,0,4.75-3.64,11.37-1.92,15.36.8.96,1.6,1.92,2.4,2.88.86,2.99-1.36,3.84.24,6.48,1.43,2.35,4.35,1.49,4.8,5.28-4.59,6.76-23.23,8.65-33.12,10.56-3.16.61-6.66.24-9.12,1.44.48,215.82.96,431.7,1.44,647.52,4.19.81,12.87,4.46,14.16,8.16-.16,2.16-.32,4.32-.48,6.48.48.96.96,1.92,1.44,2.88.81,3.51-2.06,4.94-1.2,7.68.85,1.93,3.15,2.84,3.84,4.56.4,2.72.8,5.44,1.2,8.16,1.05,1.95,3.15,2.73,3.84,5.28,2.28,8.4.07,19.03,2.16,26.4,1,3.53,4.75,3.8,5.04,7.92Z"/>
</svg>