<?xml version="1.0" encoding="UTF-8"?>
<svg id="Ebene_1" xmlns="http://www.w3.org/2000/svg" viewBox="0 0 225.84 329.04">
  <defs>
    <style>
      .cls-1 {
        fill: none;
        fill-rule: evenodd;
      }
    </style>
  </defs>
  <path class="cls-1" d="M225.84,329.04c-47.84-.48-95.68-.96-143.52-1.44-27.44.4-54.88.8-82.32,1.2C.02,221.24.21,113.27.24,6c13.76-1.36,27.52-2.72,41.28-4.08,7.2-.4,14.4-.8,21.6-1.2,9.44-.16,18.88-.32,28.32-.48,5.84-.08,11.68-.16,17.52-.24,7.76.16,15.52.32,23.28.48,7.84.24,15.68.48,23.52.72,4.32.08,8.64.16,12.96.24,13.76.88,27.52,1.76,41.28,2.64,5.28.4,10.56.8,15.84,1.2v323.76Z"/>
</svg>