<?xml version="1.0" encoding="UTF-8"?>
<svg id="Ebene_1" xmlns="http://www.w3.org/2000/svg" viewBox="0 0 407.3 1736.87">
  <defs>
    <style>
      .cls-1 {
        fill: none;
        fill-rule: evenodd;
      }
    </style>
  </defs>
  <path class="cls-1" d="M270.82,19.43c.24.88.48,1.76.72,2.64,1.68.4,3.36.8,5.04,1.2-.45.54-.44.34-.72,1.2l.96.24c1.67-.43,2.64.04,4.08.48.56,1.3.82,2.27,1.92,2.64l-.24-.48c1.12,1.04,2.24,2.08,3.36,3.12,3.28,1.31,12.03,4.89,14.88,5.04.74-1.23.93-.49,1.92-.96.29-1.38-.3-4.07,0-5.52,2.11,1.49,2.61,4.73,3.6,6.96.87-.15.73-.1,1.2-.48-.05-.8-.22-.55.24-1.2v.48c.4.8.8,1.6,1.2,2.4,1.76-.48,3.52-.96,5.28-1.44.32-1.68.64-3.36.96-5.04v.48c.62,1.27.1,3.39.24,4.8,3.13,1.6,2.32,3.89,3.6,6.72l.24-.48c.98-1.03,1.3-2.94,1.68-4.56l.72.24c.03,7.83-3.46,10.86-6.96,16.08.16.07.46,1.13.72,1.92-.97.3-1.21.39-1.68,1.2v1.68c2.54.28,3.03.04,4.8-.72-.56,1.65-1.21.63-1.92,2.16.8-.16,1.6-.32,2.4-.48.34,2.36,2.09,1.85,3.84,2.64-1.28-.16-2.56-.32-3.84-.48l.48.72c3.1.71,3.72,2.1,6.96,3.12v.24l-.24.48c-1.04-.08-2.08-.16-3.12-.24.28,1.14.32.81.96,1.44h-.96c-2.48-1.12-4.96-2.24-7.44-3.36.16.64.32,1.28.48,1.92-2.2-.22-3.09.24-5.04.72-.31,1.24-10.34,10.4-12,11.28-2.31,1.23-3.74-.46-5.04,1.68-1.26,2.9,2.15,6.94,2.88,9.12,1.27,3.78,1.49,8.29,2.16,11.04,1.52,2.96,3.04,5.92,4.56,8.88.31.82-.15,1.8.48,2.64,1.24-.01,2.81.12,3.12,1.92l.48-.96c0,1.98.4,3.51,0,6.24-2.96-.61-2.68,2.3-4.32,3.6-.04-.19,0-.48-.24-.24-.28,2.11-1.07,2.22-1.2,4.56.56.48,1.12.96,1.68,1.44-.58,2.74-.98,3.87.72,6.24,1.04.24,2.08.48,3.12.72l-.24.48c-1.39.31-3.43.79-4.32,1.68.46,6.81,3.77,11.09,5.04,17.76,1.88,9.89.74,21.65,0,31.68-.33,4.43,2.14,8.17,1.2,13.2-.98,5.27-2.4,11.61-3.36,17.28-1.34,7.9,4.81,12.55,2.88,19.2-3.3,11.42-22.31,13.35-33.6,16.8-3.04.88-6.08,1.76-9.12,2.64-3.54,2.42-2.49,9.09.48,11.04,3.44.64,6.88,1.28,10.32,1.92,9.74,3.22,28.18,10.67,33.6,18,15.87,21.48,21.36,52.2,26.88,84,1.27,7.32.66,16.98-.48,24-.16,1.68-.32,3.36-.48,5.04,4.12,23.3,6.41,47.97,10.8,71.04,1.28,11.2,2.56,22.4,3.84,33.6,2.78,12.13,4.14,25.08,6.72,37.92,1.83,9.07,5.02,20.7,6.96,30,1.65,7.91-3.59,11.8-2.16,19.2,1.01,5.23,4.63,8.46,5.76,12.96,1.95,7.75-2.03,17.36,0,24.48,1.09,3.81,2.35,8.65,3.12,13.2.64,3.78-.44,7.73-.96,10.32-.71,3.56,1.35,5.9,1.92,8.16,1.24,4.9.03,9.05,1.92,13.44,2.16,3.33,7.6,3.74,7.92,8.88,5.19.75,9.77,2.05,12.96,5.76-.08,1.71-.68,2.1-.96,3.12-.72,2.66.62,5.44.96,7.44,1.12,6.52-1.92,14.24-4.8,18-2.62,3.41-9.69,3.77-11.04,5.52-1.73,3.89,1.69,15.85,2.88,19.2.08,1.52.16,3.04.24,4.56.89,2.26,2.54,6.85,2.88,9.12-.16.72-.32,1.44-.48,2.16,2.2,8.92,4.52,15.92,5.04,25.92,1.13.13.56-.32,1.2.72-1.77,4.79,7.13,29.53,8.64,36.24,2.71,12.07-2.36,31.48-4.56,41.04v6.96c-.72,4.32-1.44,8.64-2.16,12.96-.8,2-1.6,4-2.4,6-1.56,6.02-1.62,11.46-3.36,17.04-1.68,4.4-3.36,8.8-5.04,13.2-1.76,8.08-3.52,16.16-5.28,24.24-4,10.72-8,21.44-12,32.16-.8,4.64-1.6,9.28-2.4,13.92-2.08,8.24-4.16,16.48-6.24,24.72-2.31,11.98-2.09,22.62-4.8,34.08-3.68,15.59-7.85,32.78-11.52,48.48-1.04,6.72-2.08,13.44-3.12,20.16-1.28,5.39-3.37,10.62-5.04,15.36-2.56,7.27-3.17,13.78-6.72,19.68-2.09,3.48-12.56,15.24-12.72,17.76,2.15,4.33,4.72,8.51,5.76,13.92,2.26,11.79-7.34,30.11-10.56,38.4-1.17,3.02-.07,7.12-1.44,9.84-1.79,3.55-5.54,6.28-7.2,9.6-1.77,3.54-1.46,10.13-2.16,13.68-.72,3.66,5.89,7.75,5.28,12.72-.53,4.33-3.2,6.79-4.08,10.08-.93,3.46,1.97,7.42,1.2,12-.88,3.36-1.76,6.72-2.64,10.08-.15.76-.72,9.12-.72,9.12.64,1.98,2.51,4.56,1.68,8.16-.88,2-1.76,4-2.64,6-.24,5.2-.48,10.4-.72,15.6-2.8,16.66-3.6,34.57-6.24,50.64.32,6.48.64,12.96.96,19.44-.96,4.48-1.92,8.96-2.88,13.44-1.12,2.72-2.24,5.44-3.36,8.16-2.31,11.61,2.42,20.77,2.88,30.72.6,12.92-.5,25.11-4.32,34.08-2.24,4.24-4.48,8.48-6.72,12.72v7.2c-.16,1.2-.32,2.4-.48,3.6,2.17,8.27,8.68,14.87,10.56,24,1.34,6.48-2.82,23.81-.72,28.56,1.12.56,2.24,1.12,3.36,1.68,2.07-.35,2.91-1.74,4.8-1.44v1.2c-1.28.64-2.56,1.28-3.84,1.92-.27,3.95-5.43,9.1-.96,12.96,3.17-.53,4.04,3.01,6.72,3.6,3.46.76,6.05-1.68,8.64-2.16,7.82-1.45,13.4,6.28,14.64,11.76,1.53,6.76-6.61,7.06-5.76,13.2,1.03,7.45,17.6,14.72,23.28,18.96,2.69,2.01,5.04,5.52,9.12,6-.86-2.45-3.87-2.67-5.52-4.32,4.48,1.84,8.96,3.68,13.44,5.52,1.37,1.02,2.33,2.92,4.32,3.36h.72c2.68.15,3.2-1.65,4.8-2.4,3.2-.08,6.4-.16,9.6-.24-1.68-.48-3.36-.96-5.04-1.44v-.24c6.87.06,16.45.55,21.12,3.36,2.9,1.74,4.81,4.75,7.92,6.24l.48-.72c1.36.75,2.49,1.89,3.12,3.36h.96c-.56-.88-1.12-1.76-1.68-2.64h.24c10.06,5.19,10.51,21.09,7.2,33.12-.84-.16-.84-.34-1.44.24-1.36,2.18-1.2,4.81-2.4,7.44-1.24,2.73-4.35,4.24-6.72,6h.48l1.44.24c-.08.56-.16,1.12-.24,1.68-1.92.72-3.84,1.44-5.76,2.16-.72,1.12-1.44,2.24-2.16,3.36-3.05,2.25-5.49,1.6-9.12,2.4-2.32,1.44-4.64,2.88-6.96,4.32-16.25,6.56-37.2,6.53-55.68,10.56-15.7,3.42-33.7,6.36-49.44,9.84-4.72.72-9.44,1.44-14.16,2.16-6.72,1.62-12.67,4.19-19.92,5.52-3.52-.16-7.04-.32-10.56-.48-10.66-1.71-20.18-3.07-29.04-5.28-4.34-1.08-9.9-1.05-12.24-4.08-3.47-4.5-1.64-10.21-.72-15.6.55-3.2-.54-4.46.72-6.48-1.24-3.01-3.58-4.6-4.32-8.4v-19.2c-1.43,1.22-3.48,2.85-5.52,3.36-2.59.65-4.07-.07-5.76,1.2-.72,1.12-1.44,2.24-2.16,3.36-1.92,1.51-4.97,1.24-7.2,2.64-1.26.79-1.1,2.5-2.16,3.36-2.19,1.76-4.65,1.81-7.44,3.12-1.93.9-3.15,2.79-4.8,3.84-3.2,1.28-6.4,2.56-9.6,3.84-6.12,2-14.02,1.51-20.88,2.64-13.44,2.21-43.73-2.43-40.8-13.92.88.22.93.34,1.68.24-1.36-5.95,5.15-12.78,4.08-16.8-5.63-11.64-.04-27.99,1.92-40.32-.72-.24-1.44-.48-2.16-.72.07-5.58,1.68-15.98,6.72-17.04-2.39-3.84,3.24-16.04,6-17.04-.24-2.16-.48-4.32-.72-6.48-4.86-.63-10.09-2.43-15.6-3.36-3.6-.08-7.2-.16-10.8-.24.09-8.13-1.26-14.57-2.4-21.36-1.6-9.51-1.4-18.09-2.88-26.64-1.43-8.22.45-16.59-.96-25.44-1.2-12.48-2.4-24.96-3.6-37.44-.24-6.96-.48-13.92-.72-20.88-1.17-7.39.31-15.43-.96-23.52-2.12-13.47-.96-28.84-.96-43.44.08-5.92.16-11.84.24-17.76-1.03-12.48-1.4-32.63.48-44.4.32-9.12.64-18.24.96-27.36,3.37-19.79,5.43-39.32,9.6-58.08,1.12-6.48,2.24-12.96,3.36-19.44,2.24-9.2,4.48-18.4,6.72-27.6,1.04-3.6,2.08-7.2,3.12-10.8-.08-3.36-.16-6.72-.24-10.08.67-4.41.71-11.46,1.92-16.32,2.16-8.7,5.1-16.48,8.4-24,1.84-3.44,3.68-6.88,5.52-10.32,1.21-3.93-2.75-13.94-1.68-20.4,1.58-9.57.26-17.59-1.44-27.84-.96-5.79-.35-10.51-1.2-15.6-.64-3.84.47-7.42.96-10.32,1.81-10.73-.76-22.95.96-32.64.89-5.01-2.14-8.07-2.88-12-1.49-7.86,4.84-12.36,2.16-21.12-1.36-2-2.72-4-4.08-6-.76-2.8,1.74-3.8.72-6.48-.88-1.04-1.76-2.08-2.64-3.12-1.5-5.35,3.57-13.29,2.4-19.68-.54-2.95-3.15-5.83-2.16-10.32.89-4.05,3.77-6.02,4.32-10.08-6.86-6.88.24-7.6-3.36-13.92-1.4-2.46-4.8-3.24-6-6.24-1.52-3.8-.11-8.47-1.2-12.96-.71-2.93-2.64-6.72-3.36-10.08-.15-.71.05-18.06.24-18.72.48-.56.96-1.12,1.44-1.68-.24-3.36-.48-6.72-.72-10.08.56-1.44,1.12-2.88,1.68-4.32.08-2.32.16-4.64.24-6.96-.8-4.48-1.6-8.96-2.4-13.44-1.18-6.53-.19-14.98,1.2-20.64,1.84-7.5,7.48-15.46,8.4-21.84-2.06-1.72-3.01-4.47-4.56-6.72-4.21-6.11-8.04-12-12-18.72-8.47-14.38-16.6-29.88-23.52-45.6-4.59-10.42-8.44-21.36-14.16-30.72-1.36-.08-2.72-.16-4.08-.24-2.73-1.46-10.49-14.58-11.52-18.24-.79-2.81,1.4-4.86.24-7.92-1.07-2.11-3.04-2.44-4.8-3.84-1.45-1.15-2.54-5.1-3.12-6.96-3.71-11.98,3.79-20.26,4.32-29.04-2.32-1.84-4.64-3.68-6.96-5.52-3.94-6.85,4.56-11.6,2.64-18.96-.47-1.79-2.12-4.13-1.44-6.96,1.28-5.29,5.76-9.51,5.04-16.32-.91-8.64-3.5-17.38-1.92-26.88,1.76-9.84,3.52-19.68,5.28-29.52.32-6.56.64-13.12.96-19.68,1.2-13.6,2.4-27.2,3.6-40.8-1.05-5.97-13.39-17.62-11.52-25.44.83-3.46,2.63-7.91,3.6-11.76,3.85-15.28,5.55-29.53,12.48-41.52,3.44-4.72,6.88-9.44,10.32-14.16,2-4.48,4-8.96,6-13.44,1.97-3.25,4.97-6.03,6.96-9.12,4.63-7.19,8.27-14.17,13.68-20.4,8.64-6.32,17.28-12.64,25.92-18.96,18.45-13.09,35.33-27.41,54.96-39.36-.14-7.14,3.32-8.56,5.04-12.96,1.31-3.37.79-6.35,1.92-10.32.73-2.54,2.87-3.81,3.84-6,2.25-5.09,2.7-12.01,5.76-14.88,2.85-2.68,12.77-4.23,13.92-5.52h-1.68l.72-.96c-1.08-.22-.31-.71-1.44-.96l.72-1.44c-2.16-.77-1.28-7.06-2.64-9.6-3.04-5.68-6.53-15.24-11.28-19.68-6.01-5.62-10.73-15.04-14.4-22.8-1.04-2.4-2.08-4.8-3.12-7.2-9.83-12.68-16.78-20.12-21.12-38.88-.87-3.75-.94-6.72-.24-10.56.32-1.44.64-2.88.96-4.32-.45-2.98-3.23-3.62-2.4-7.68,1.44-7.04,6.16-13.44,9.36-21.12,1.31-3.13,1.78-4.47,2.88-6.96l-.24-.48c.66-.71,2.73-1.76,3.6-3.36l-.96.24c.9-1.11,3.3-2.59,2.88-4.8h1.68c-.53-.42-.64-.42-1.68-.48.26-2.18,1.26-4.64,2.64-5.76,2.88-.05,5.1-.36,8.16.24l-.24-.96c-1.45-.11-2.63-.64-3.12-1.44,1.28.24,2.56.48,3.84.72,1.73-7.83,4.5-12.79,7.92-18.96,2.45.75,9.87-6.98,12.48-8.4.46-.25,2.03.15,3.12-.48,3.8-2.21,6.89-5.96,11.76-7.44,4.88-.32,9.76-.64,14.64-.96,3.78-1.26,4.65-4.07,9.12-4.8l-.48.72c1.52-.56,3.04-1.12,4.56-1.68l-.48.48c5.03-1.47,6.2-1.83,11.28-.96-.02.76-.42.35.24.72,0,0,8.19,1.25,11.04,1.2l-.96.72c4.51-.07,7.78-.71,11.52,1.44l-1.2.24.72.48c3.27-2.11,8.51,4.8,8.88,8.64l-.24.24c-.64-.24-1.28-.48-1.92-.72.7,1.42.9,1.53.24,2.64,5.47.66,10.57,1.87,14.16,2.4,1.04.15,5.9-1.5,6.48-1.2,2.07,1.08,3.74,2.25,6.96,2.16Z"/>
  <path class="cls-1" d="M177.22,1558.07c0-11.44-4.16-23.22-2.16-36,1.67-10.64,2.76-19.65,4.08-29.76-.32-3.12-.64-6.24-.96-9.36-.4-8.96-.8-17.92-1.2-26.88,1.01-21.33.69-40.42-2.4-59.52-.24-6.48-.48-12.96-.72-19.44.08-5.92.16-11.84.24-17.76.08-3.68.16-7.36.24-11.04.88-9.52,1.76-19.04,2.64-28.56v-7.2c.32-2.4.64-4.8.96-7.2-.4-2.28-1.67-5.47-.96-8.64,1.15-5.12,2.21-6.18,1.2-12.24-1.26-7.54,2.63-14.28,4.08-19.2-.16-1.12-.32-2.24-.48-3.36.96-2.32,1.92-4.64,2.88-6.96,1.05-5.59-.42-11.17.72-16.56.91-4.29,4.16-6.31,5.04-10.08.47-2.02-4.81-21.1-5.52-22.08l-.72.48c-1,2.66-1.96,6.17-1.2,10.32.34,1.84,1.2,4.43.48,6.72-2.88,5.84-5.76,11.68-8.64,17.52-.48,2.48-.96,4.96-1.44,7.44-2.55,6.92-7.68,12.3-12.24,17.28.09,9.26-3.22,20.82-4.8,29.28-.08,3.28-.16,6.56-.24,9.84-1.28,6.96-2.56,13.92-3.84,20.88-1.09,8.29-.36,19.78-1.44,28.08.32,3.52.64,7.04.96,10.56.74,4.84-.65,9.54.24,15.12,1.28,8.03,1.19,17.54.72,25.2v11.76c-1.21,6.02-.96,10.4-1.68,16.56-.86,7.32-3.9,9.72-2.4,18.96v15.12c2,3.28,4,6.56,6,9.84,3.6,6.1,5.55,12.92,7.44,20.88,1.04,11.12,2.08,22.24,3.12,33.36-.24,4.24-.48,8.48-.72,12.72.59,2.13,4.43,10.6,5.76,12.96,2.32.32,4.64.64,6.96.96Z"/>
</svg>