<?xml version="1.0" encoding="UTF-8"?>
<svg id="Ebene_1" xmlns="http://www.w3.org/2000/svg" viewBox="0 0 871.45 833.64">
  <defs>
    <style>
      .cls-1 {
        fill: none;
        fill-rule: evenodd;
      }
    </style>
  </defs>
  <path class="cls-1" d="M361.21,737.32c-2.49-.05-5.42-.36-6.96.24l-1.44-.96c-.32-1.6-.64-3.2-.96-4.8-6.97-1.21-11.94-5.72-19.44-7.2-2.6,3.6-7.66,1.05-12.48.72-1.35,2.02-4.22,5.61-8.16,4.8-2.54-.52-19.47-11.09-20.88-12.96-2.43-3.22-5.43-8.06-6.24-12.24-6.12-2.7-18.53-13.76-23.04-18.72-2.88-3.2-5.76-6.4-8.64-9.6-3.36-.8-6.72-1.6-10.08-2.4-5.12-2.24-10.24-4.48-15.36-6.72-.72.96-1.44,1.92-2.16,2.88-.11.49,4.72,15.72,5.28,18.48,3.18,15.57,3.11,36.43-1.2,50.88-9.81,32.89-27.16,58.21-53.52,74.4-6.32,3.2-12.64,6.4-18.96,9.6-2.72,1.12-5.44,2.24-8.16,3.36v.24c1.28.32,1.31.14,1.44,1.68-11.8,3.05-28.08,3.77-41.76,4.32-5.84.24-14.12,1-18.48-1.2-.17-1.12-.08-1.23-.96-1.68-5.6-1.52-11.2-3.04-16.8-4.56-10.68-4.2-21.13-9.82-29.76-16.32-2.89-2.17-4.57-5.52-7.2-7.92-1.12-.48-2.24-.96-3.36-1.44-2.1-2.18-2.69-5.22-5.28-6.96.56.96,1.12,1.92,1.68,2.88-7.32-5.58-12.61-16.31-16.8-24.96-19.51-40.25-12.05-79.12,6-113.52,6.34-12.07,17.4-20.53,26.16-30.24v-.72l-2.16-2.16c-2.71.79-8.72,1.35-11.28.24h.48l.72-.72c-.94-.87-2.43-.93-3.36-1.2v-.96c2.21-1.52,3.28-4.5,5.28-6,1.28-.48,2.56-.96,3.84-1.44,1.86-1.22,7.42-9.68,9.36-12,1.29-1.54,4.62-7.56,5.28-8.16,2.2-2,12.7-10.96,13.44-12.96v-3.12c2.68-7.43,6.84-17.44,12.72-21.84,11.1-8.32,29.79-10.71,45.84-13.68,3.24-.6,3.54,1.18,6,.96,6.7-.59,15.04-1.44,20.16-4.8-.04-1.91-.55-2.39-1.2-3.6-5.27.63-9.51-1.33-12.48-4.32.22-3.87,2.2-6.32,4.8-7.92l-.24-1.2c1.22-.44,7.22-3.47,8.4-4.32l-.48-.72h-2.16v-.24c.72-1.2,1.44-2.4,2.16-3.6v-.24c-1.96.05-2.54-.28-3.6-.96.62-1.36,3.44-5.34,4.32-6,1.67-1.26,4.01-.73,5.28-2.4-.4-.32-1.16-.46-1.68-.72.56-1.04,1.12-2.08,1.68-3.12-.64-.32-1.28-.64-1.92-.96.73-2.55,2.56-5.4,4.32-6.72,1.54-1.15,3.62-.32,4.32-2.4-.64.16-1.28.32-1.92.48.48-1.12.96-2.24,1.44-3.36-.97-.27-.92-.33-1.44-.96,15.69-29.69,35.56-56.51,55.68-82.32,10.7-13.72,20.73-26.53,35.04-36.72,6.4-4.56,14.21-20.82,21.6-23.28v-.24c-1.69.1-2.46.61-3.6,1.2l.96-1.44c1.68-1.04,3.36-2.08,5.04-3.12,1.44-.32,2.88-.64,4.32-.96v-.24c-.96-7.57-4.95-3.3-8.64-5.52v-1.2c-7.48.15-13.58,2.51-19.68,3.84-2.2.48-3.4-.82-4.56-1.44-6.22-3.36-8.96-7.57-8.88-17.28l.48.24c.16.88.32,1.76.48,2.64l.48-.24c.37-6.93,1.7-13.55,2.88-19.44,1.06-5.29.87-11.45,2.16-16.56.94-3.74,2.71-7.54,3.36-11.76l-.48.24c-.32.56-.64,1.12-.96,1.68h-.24v-.24c4.8-10.88,7.12-15.15,20.4-17.76l.24-.72c-1.63-5.66,1.26-23.94,3.84-26.88.56.72,1.12,1.44,1.68,2.16h-1.68c1.7,1.97,3.91,3.92,4.56,6.96.38,1.76-.67,3.83.24,5.52.64.48,1.28.96,1.92,1.44,2.43,3.93,3.08,7.99,5.04,12,8.78,1.01,19.61,1.39,26.64,4.8,5.49,2.66,9.54,7.71,14.16,11.28,3.36,2.08,6.72,4.16,10.08,6.24,1.52-.4,3.04-.8,4.56-1.2-.29-17.78,4.8-22.43,12.48-30.96,2.81-3.11,2.96-8.51,6.48-11.28.79.28.65.33,1.2.72-.4-.72-.8-1.44-1.2-2.16,3.4-.89,5.3-10.57,6.48-15.36,2.08-8.47,4.66-20.16,11.04-24.48,3.75-2.54,13.44-3.75,16.08.96.08,1.12.16,2.24.24,3.36,3.14.45,10.73,8.67,11.52,11.52-.8.49-.98.52-.72,1.44.27,1.6.73,1.55,2.16,1.92,1.86,14.87,4.88,27.59-6.72,35.28-1.9,1.26-5.04,3.2-9.12,2.16-6.69-1.7-13.31-9.11-18.48-10.32-6.45,7.37-29.78,22.9-25.92,37.2,2.23,0,3.18.88,3.84,2.4.64,2.64,1.28,5.28,1.92,7.92,2.99,1.05,5.46,3.24,7.92,4.56,2.72.64,5.44,1.28,8.16,1.92.53.5.21.58.72,1.2,1.69-.61,4.77-.7,6.24-1.68.48-.96.96-1.92,1.44-2.88,1.22-1.67,4.78-4.28,6.96-4.8,2.66-.63,5.06,1.48,6.72,2.16,1.44.24,2.88.48,4.32.72,5.35,1.53,16.55,7,21.84,6.24,1.37-6.04,19.29-6.76,21.84-1.68,2.48-.48,4.96-.96,7.44-1.44,2.38-3.42,5.01-7.81,6.72-11.76.16-1.12.32-2.24.48-3.36,2.45-4.34,5.66-8.69,7.68-13.44,1.89-4.45,1.53-9.06,3.36-13.2,1.68-2.72,3.36-5.44,5.04-8.16v-11.76c2.66-12.27,3.51-24.65,8.4-34.32,2.16-4.28,6.08-9.86,9.6-12.96,1.44-1.04,2.88-2.08,4.32-3.12,2.11-3.34,3.04-6.63,4.8-10.32,1.08-2.27,2.74-3.85,2.88-7.2h-.24l-.24,1.2c-.1-3.39-5.1-11.14-7.44-12.48-2.72-.96-5.44-1.92-8.16-2.88-2.08-1.28-4.16-2.56-6.24-3.84-3.76-1.3-7.71.47-10.56-1.2-6.83-3.99-2.52-6.91-3.84-13.68-.48-2.47-1.91-4.41-1.92-7.44.75.08.21.32.72-.24-.3-.42-.22-.08.24-.96l1.2-.48c-1.49-3.84-4.28-6.75-5.52-10.32-.08-1.76-.16-3.52-.24-5.28-1.07-2.46-3.64-1.87-3.84-6,1.35-3.26,4.42-5.17,3.6-9.6-.56-.24-1.12-.48-1.68-.72.51-.33,2.56-4.28.72-6.24l-.24,1.2c-.08-.56-.16-1.12-.24-1.68-1.68.28-1.84.96-3.36,1.44.39-.82.39-.8,1.2-1.2.04.19,0,.48.24.24.14-.71-.25-.26.48-.72,1.43-.76,3.61-.54,5.28-.48v-1.44c-.56.08-1.12.16-1.68.24-1.1-6.7.92-6.49,1.44-11.28-3.25-2.43-8.56-9.16-5.28-14.88,1.44-1.68,2.88-3.36,4.32-5.04.77-2.59-.67-2.75-.96-4.8.35-.1,1.68-2.4,1.68-2.4.96.24,1.92.48,2.88.72-.28-3.4,5.43-8.71,7.92-11.28,9.23-9.56,24.81-19.35,45.6-15.36,25.1,4.82,42.5,16.84,48.96,40.32,1.63,5.93,2.41,14.62.72,21.6-.52,2.15-1.97,2.95-2.4,5.28-.39,2.11,1.49,6-.24,7.92-.6.58-.73.63-1.92.72.36.81.35.67.24,1.68h.24l1.2-.48-.48.72c-1.45,2.44-6.04,2.07-7.92,3.36,1.16,4.11-3.14,9.22-5.04,11.52-2.22,2.69-3.09,15.98-2.16,22.8h.24c.96-.32,1.92-.64,2.88-.96,2.14,3.23,3.98,7.68,5.76,11.04-.32.56-.64,1.12-.96,1.68.48.96.96,1.92,1.44,2.88,2.16.32,4.32.64,6.48.96,1.52,1.28,3.04,2.56,4.56,3.84,12.73,5.46,23.2,8.29,30.24,19.2,3.13,4.85,3.77,12.52,6.72,17.28,1.92-.16,3.84-.32,5.76-.48,1.73-1.31,12.1-14.02,12.48-15.84-.32-.88-.64-1.76-.96-2.64h-3.6l-.24-.48.72-.24c-1.72-1.57-3.98-2.07-4.08-5.28,1.35-3.1,4.43-4.76,6-7.44,3.84-6.54,9.31-14.18,10.08-23.28-.96.56-1.92,1.12-2.88,1.68,1.2-1.36,2.4-2.72,3.6-4.08-.99-1.61-4.88-5.95-6.72-5.04l-.96,1.44c.24-.56.48-1.12.72-1.68l-.72-.96-.48.48c-1.29.71-1.68,2.33-2.64,3.36l.24.72.72.24c.96-.62,1.33-1.45,2.16-2.16-.4.88-.8,1.76-1.2,2.64,2.76,1.48,2.22,8.31,1.44,11.04-.56.24-1.12.48-1.68.72-.2-.38-5.76-3.35-6.24-3.36.73-2.44.42-3.91,0-6h.24l.96.96c-.38-3.93-.89-6.44-.48-9.36.32.34.3.42.72.72l-.72-1.44c.69.04.95.48.72-.24,1.78,2.11-1.82,5.4,2.4,5.76.58-1.11,2.88-5.04,2.88-5.04-.49-1.34-3.67-3.35-5.04-4.56v1.44c-.16.56-.32,1.12-.48,1.68-.08-.72-.16-1.44-.24-2.16-1.28,1.2-2.56,2.4-3.84,3.6,1.52-1.84,3.04-3.68,4.56-5.52-.4-1.2-.8-2.4-1.2-3.6v.48c-.61.63-.8,1.27-.96,2.4h-.48v-.72c1.77-4.02,3.42-10.01,1.68-13.68l-.72.48c-1.01-6.39-6.65-9.61-8.16-15.84-1.62-6.68,3.1-10.4,4.08-14.64.46-2-.89-5.11-1.68-5.76,1.14-.81.96-4.85.96-7.2-2.41-.46-2.67-5.18-3.6-7.92l.72.48c-.15-4.2.31-3.58.72-7.44l-.72.96c.2-3.86,4.04-8.41,6.24-11.28l-.72-.72,1.2-1.44c.21.63-.1.84.48.48l.24-.72-.72-.96.48-.24c.33.46.02.14.48.48-.58-10.83,2.75-17.24,12.48-18.48-.52-.36-1.04-.04-.72-.72.8-.4,1.6-.8,2.4-1.2-.14-1.69-.3-1.55,0-2.88,1.36-.55,1.84-1,3.36-.96,1.16,1.78,6.18-1.47,8.88-2.4,8.31-2.85,20.42-4.13,30-1.44,23.61,6.63,50.57,37.08,40.08,70.32-1.95,6.17-5.22,11.37-8.64,16.08-.69-.31-.07-.6-.72-.24-1.89,1.29-2.37,3.35-3.6,5.28l-1.2-.96c-.27,8.76,7.43,19.38,11.76,25.68-.25,5.45,8.23,17.1,10.56,20.88,2.44,3.94,9.34,10.04,8.64,14.4h1.2c.12,2.16,1.17,4.27,1.92,5.76-.76,0-.63-.58-.96.24l.48-.24c.38.65.08.33.72.72.26-.47-.01-.46.48-.24-1.11,3.09,4.19,4.84,5.04,7.92l-1.2.72c.64,2.4,1.28,4.8,1.92,7.2,1.29,1.93,21.82,13.13,7.44,17.52.56.8,1.12,1.6,1.68,2.4-.56-.32-1.12-.64-1.68-.96v.72c-.48,3.31,3.93,5.92,2.64,11.04-1.58,6.24-.74,4.14.48,9.12.39,1.6-.9,2.71-1.2,3.6.32,4.16.64,8.32.96,12.48.65.93,1.74,1.16,2.4,2.4-4.4,3.32-7.86,6.68-11.04,11.28.42.96,1.05,2.39.72,3.36l-.96-1.44c-1.54,14.94,3.32,29.52,2.16,43.44-.48,5.81,3.51,12.54,1.44,17.52.4.7.82,2.65,1.44,3.36l1.2.24-.24.48c-.19,5.58,2.74,12.87,1.44,19.2-.72,2.32-1.44,4.64-2.16,6.96l.96.48c-.16,2.24-.32,4.48-.48,6.72-1.36,7.49-2.07,15.78-3.84,22.32-1.31,4.85-1.3,9.89-4.08,13.2-1.2-.53-1.58-.86-2.88-.24-.62,1.54-1.34,1.25-2.16,1.92,1.73,6.37-4.37,12.32-3.36,16.8-.96.14-.72-.01-1.2.48-.46,1.06-.04,1.77.48,2.4l-.24.48h-2.16c.09,1.66.53,2.15,1.2,3.12,15.04.34,14.95,3.85,19.2,13.2.79,1.74-1.1,4.19,0,6.96,2.08.24,4.16.48,6.24.72v.24l-1.2,1.2c.82.72,2.35.91,3.84.96l-.24.48c-2.05.64-.86,1.41-.96,3.12,1.43.21,1.91.38,2.4-.96.67.87.34.88,1.92.96v.96c-4.09,2.6-10.26,3.16-13.44,6.72v-1.68h-.96c-2.19,2.97-10.21,15.59-9.36,20.4.48,2.72,3.21,4.87,3.6,6.72h-.24c-.78-.72-1.34-1.2-2.64-1.44,3.28,4.02,9.39,7.65,14.16,10.08-.72-.64-1.44-1.28-2.16-1.92,3.26.74,6.73.98,11.52.96.9,1.04,1.57,1.16,1.92,2.88,3.13.03,5.02,1.26,7.2,1.68,2.19.42,3.72-1.31,6-.48,2.37.87,4.67,3.18,6.72,3.84,2.01.65,4.59-.45,5.52-.72,7.9-2.31,10.85,4.57,12.48,8.4-1.3-.4-1.68-1.06-2.88-.96l.24.72c14.73,14.77,30.5,24.56,42,42.96,2.93,4.7,6.12,8.42,6.72,13.68-2.31.4-1.58,3.15-4.32,4.08-1.52.08-3.04.16-4.56.24l.96.72c-1.44,1.28-2.88,2.56-4.32,3.84,2.18,4.8-1.26,10.45-4.32,12.72-1.51,1.12-2.81.73-3.84,2.16.66-.28.53-.4,1.2-.24-1.75,1.83-7.49,5.78-6.24,8.64,3.79.39,4.92,1.34,6.72,3.6l-.24.48-.72-.48c1.39,2.84,2.44,4.91.72,8.4,2.52,4.92,11.88,4.57,17.52,5.52.96,1.51,1.66,3.51,3.36,4.32v-.72l.48.24c-.55,4.69,4.8,9.84,6.96,13.2,6.32,10.88,12.64,21.76,18.96,32.64l.48-.24v-.96l-.72-.96.24-.24.48.24c.94,2.3,2.31,3.13,2.4,6.48l-.72.48c-5.64,3.86-14.29-2.34-20.64-.96.6,1.21.91,1.8.48,2.88-4.2,1.23-5.31-1.3-8.88-2.16-4.24-.16-8.48-.32-12.72-.48-2.08-.64-4.16-1.28-6.24-1.92-.56.72-1.12,1.44-1.68,2.16,1.28,5.84,2.56,11.68,3.84,17.52.32,3.68.64,7.36.96,11.04,1.74,10.41-.6,22.03-2.64,30-6.33,24.74-13.36,36.73-27.12,53.52-2,2.32-4,4.64-6,6.96-12.37,9.66-23.12,17.08-39.36,23.28-6.64,1.36-13.28,2.72-19.92,4.08-11.92,2.17-25.68-.95-34.32-3.6-24.17-7.43-42.54-20.55-55.2-39.36-3.9-5.79-6.66-12.35-10.32-18.48h-17.76c-3.92,1.74-3.86,7.48-6.48,10.56-1.28,1.5-9.15,3.88-11.28,5.04-1.92-1.23-1.59-3.22-2.88-5.04-2.31-3.26-10.88-2.69-15.36-1.44-2.01-1.21-4.71-5.36-5.76-7.44l.96-.72c-.59-1.04-1.11-1.57-2.4-1.92l-.24.96c-2.88-.88-5.76-1.76-8.64-2.64-4.07-1.24-14.02,2-16.56,3.12-4.77,2.1-24.98,1.7-30.72.48-3.04-.65-4.93-3.03-7.44-3.84-4.58-1.47-6.32,1.02-10.08-.48-3.52,2.88-1.55,4.4-3.6,7.92-1.2,2.05-11.49,9.6-14.88,8.4-1.91-.67-2.14-2.74-3.36-4.08-5.51-.17-17.97-3.46-21.84-1.92-.1,1.49-.35,1.73-1.2,2.4l1.2,1.44-.72,1.44c-3.56.63-9.02,1.45-11.04-1.68-1.04.37-1.42.65-2.16,1.2l-.48-.24v-2.16l-.48.24c-.35.96-.48,1.28-1.44,1.68l-.24-1.2c-.64.24-1.28.48-1.92.72-.1-.97-.08-.94-.48-1.44-.74.59-.8.81-1.44.96l-.24-1.2c-.97.27-.92.33-1.44.96l-.48-.24c-.16-.64-.32-1.28-.48-1.92l-.48.24-.72,1.44h-.24v-2.4l-1.92,1.92c-.2-1.17-.26-1.1-.96-1.68h-.24l-.48,1.2-.48-.24v-2.64l-.48.24c-.4.72-.8,1.44-1.2,2.16h-.24l-.24-1.44-1.44.96c-.4-.64-.8-1.28-1.2-1.92v.48l-.72,1.2-.48-.24v-1.92c-.64.56-1.28,1.12-1.92,1.68-.3-1.06-.15-1.07-1.2-1.44-.46.73-.05.39-.96.72-.08-.8-.16-1.6-.24-2.4l-.48.24c-.32,1.08-.34,1.31-1.44,1.68-.03-.77.26-1.71-.48-1.2-2.89.27-6.29-1.99-10.32-2.4-1.42,1.89-2.42,1.06-4.8,2.16-.88.96-1.76,1.92-2.64,2.88-4.75,3.07-8.68-1.84-10.8-3.84-5.6.16-11.2.32-16.8.48-1.47.76-.99,2.07-3.36,2.4-.62-.41-.82-.51-1.2-1.2l-.24-1.44Z"/>
  <path class="cls-1" d="M456.73,330.28c-5.52,1.04-11.04,2.08-16.56,3.12-9.9,2.55-20.09,4.8-31.68,6.72-6.15,1.02-14.23.47-19.92-.48-5.28-.48-10.56-.96-15.84-1.44-9.28-1.77-19.09-3.24-27.84-4.8-6.73,10.07-12.78,21.9-18.48,32.88h-2.64c.59,5.82-3.13,10.47-3.6,16.56,5.25,4.05,6.96,10.06,8.4,18,.57,3.14-.12,4.83,1.2,6.72h.24c4.56-1.6,9.12-3.2,13.68-4.8,18.19-5.06,36.34-7.61,55.44-11.76,5.04-1.12,10.08-2.24,15.12-3.36,1.28-1.04,2.56-2.08,3.84-3.12,2.18-.6,3.52,1.42,4.56,2.16h.72c.78-3.08,13.65-11.02,15.84-7.92,2.53-.77,3.92-3.7,6.24-5.04,2.87-1.65,7.2-.69,10.56-2.4,2.4-2.8,4.8-5.6,7.2-8.4l-.48-.72c-1.67-.59-4.85-2.26-5.52-3.84-.76-1.78.4-3.95.72-5.28,1.07-4.42-.39-10.17-.96-13.92-.41-2.74,1.15-7.23-.24-8.88Z"/>
  <path class="cls-1" d="M315.61,395.56c-.69,4.98-3.68,11.38-6.48,14.64.08,1.94,1.16,2.97.96,4.32-.43,2.84-3.08,4.56-4.08,6.72-2.51,5.41-4.58,11.12-6.72,16.32-7.53,18.28-15.27,37.38-19.92,58.8-3.78,17.41-2.43,41.77,2.64,56.4,2.05,5.91,6.41,15.25,6.72,21.6h-.48c-1.28.16-2.56.32-3.84.48v.72c.8.24,1.6.48,2.4.72,3.82,10.83,8.55,21.93,13.92,31.68,2.08,3.6,4.16,7.2,6.24,10.8,1-.31.75-.13,1.2-.96,3.52.9,11.96,13.17,16.32,11.28,2.04-.88.92-2.97,1.68-4.32,1.61-2.88,5.27-4.9,7.2-7.44,3.38-4.44,4.84-11.72,12.24-12,.69.56.68.85,1.68,1.2l.96-.48c.16-1.12.32-2.24.48-3.36-3.43-4.63-8.07-9.67-9.36-16.32-1.38-7.15,3.5-10.36,1.2-16.32-2.41-6.25-5.38-12.84-6.96-20.16-1.2-7.36-2.4-14.72-3.6-22.08-8.21-24.13-16.27-49.39-21.36-76.8-2.52-13.58,2.47-25.08,7.44-31.68,2.2-2.92,10.23-7.99,9.36-12.72-.89-4.83-6.75-6.04-8.4-11.04h-1.44Z"/>
  <path class="cls-1" d="M377.53,464.92c-2.2,2.39-5.5-.13-8.64,1.2v2.64c1.76,1.12,3.52,2.24,5.28,3.36.16,1.12.32,2.24.48,3.36,1.03,3.31,2.27,7.07,3.84,10.56,3.45,7.66,4.29,17.32,6.72,26.64v8.88c1.03,3.98-.81,10.39.48,14.88.82,2.87,1.53,7.93,2.4,11.28.47,1.81.74,12.83.48,13.92-.17.7-.96,2.91-.48,4.32,1.44,2.72,2.88,5.44,4.32,8.16,1.77,6.04-1.17,9.61,0,15.12,1.52-.08,3.04-.16,4.56-.24,1.67-1,1.31-4.28,1.2-6.96,2.07-4.62.99-10.4,2.4-15.6,4.55-16.7,5.01-36.22.48-53.28-1.56-5.87-.99-12.4-2.4-17.76v-5.04c-1.24-4.7-1.6-10.63-2.88-15.12-.32-1.92-.64-3.84-.96-5.76-2.26-3.57-11.5-4.62-17.28-4.56Z"/>
  <path class="cls-1" d="M815.05,520.6c-2.07,1.24-7.1,7.37-5.76,9.6,1.76,2.08,3.52,4.16,5.28,6.24,4,5.09,8.83,12.16,17.28,9.84.64-1.28,1.28-2.56,1.92-3.84-5.68-6.84-8.21-16.51-15.36-21.84h-3.36Z"/>
  <path class="cls-1" d="M172.57,680.92c-3.04,1.6-6.08,3.2-9.12,4.8-.23,3.53,1.09,6.46,3.12,8.4,2.12-.05,12.75-1.21,13.2-1.68-1.53-4.24-2.81-8.7-5.76-11.52h-1.44Z"/>
  <path class="cls-1" d="M412.57,720.28c3.67.06,14.33,1.86,15.84,3.84-.72,1.34-1.01,2.45-.96,4.8,2.24.16,4.48.32,6.72.48,3.54-1.12,11.52-8.02,12-12.48-2.84-3.81-26.23-4.04-33.6-2.64l-.96,1.2c.32,1.6.64,3.2.96,4.8Z"/>
  <path class="cls-1" d="M439.93,730.36c2.08.08,4.16.16,6.24.24,2.56-1.1,10.24-10.23,9.6-12.96-2-.85-3.35-3.05-6.24-1.68-1.12,2.4-2.24,4.8-3.36,7.2-1.87,2.61-6.06,2.98-6.24,7.2Z"/>
  <path class="cls-1" d="M71.29,719.08c-6.23-.12-14.29.9-18.48,3.36-.25,12.72,5.03,29.23,12,34.56,5.9-1.12,9.87-7.33,13.2-11.28-1.04-2.16-2.08-4.32-3.12-6.48-2.36-5.68-3.31-12.43-3.6-20.16Z"/>
  <path class="cls-1" d="M458.89,719.8c-2.36,3.43-5.25,5.94-7.68,9.12v.96c.48.64.96,1.28,1.44,1.92,12.54.16,31.46,6.98,39.6-1.68l-.48-.96c-3.07-4.43-10.97-2.16-16.8-4.08-5.27-1.73-10.59-4.58-16.08-5.28Z"/>
  <path class="cls-1" d="M750.73,727.72c-1.99.87-5.41.51-7.2,1.44-.48,1.63-.32,3.16.24,4.32,3.84,1.46,9.01.49,11.52-2.16l-.24-1.44c-.94-1.27-2.17-2.08-4.32-2.16Z"/>
  <path class="cls-1" d="M160.57,753.64c-2,.4-4,.8-6,1.2-1.1.53-9.75,7.05-10.08,7.92-.67,2.94,3.06,6.79,4.8,8.4,3.78-.37,15.93-11.05,16.56-14.4-1.12-1.04-2.24-2.08-3.36-3.12h-1.92Z"/>
  <path class="cls-1" d="M83.53,754.84c-1.12.16-2.24.32-3.36.48-1.44.68-7.5,9.37-6.72,11.52,1.68,3.32,12.81,10.15,17.76,10.32,1.52-4.8,3.04-9.6,4.56-14.4-3.52-2.64-7.04-5.28-10.56-7.92h-1.68Z"/>
  <path class="cls-1" d="M133.93,766.36c-4.73,2.63-15.02,3.14-21.6,1.92-2.32-.48-4.64-.96-6.96-1.44-1.45.25-2.54,1.21-3.12,2.4-1.09,3.22-1.35,7.95.24,10.56,12.06,1.95,27.84,1,36-4.08.66-3.22-1.44-8.92-4.56-9.36Z"/>
</svg>