<?xml version="1.0" encoding="UTF-8"?><svg id="Ebene_2" xmlns="http://www.w3.org/2000/svg" viewBox="0 0 218.12 73.23"><defs><style>.cls-1{letter-spacing:0em;}.cls-2{letter-spacing:-.01em;}.cls-3{letter-spacing:-.02em;}.cls-4{letter-spacing:-.04em;}.cls-5{letter-spacing:0em;}.cls-6{letter-spacing:0em;}.cls-7{letter-spacing:-.02em;}.cls-8{letter-spacing:-.02em;}.cls-9{letter-spacing:0em;}.cls-10{font-family:FSMe-Light, 'FS Me';font-size:9px;font-weight:300;}.cls-11{letter-spacing:-.06em;}.cls-12{letter-spacing:0em;}.cls-13{letter-spacing:0em;}.cls-14{letter-spacing:0em;}.cls-15{letter-spacing:0em;}</style></defs><g id="Ebene_1-2"><text class="cls-10" transform="translate(0 7.74)"><tspan x="0" y="0">Nicht einmal jeder z</tspan><tspan class="cls-9" x="79.76" y="0">w</tspan><tspan x="86.76" y="0">ei</tspan><tspan class="cls-15" x="93.62" y="0">t</tspan><tspan x="96.87" y="0">e Arbeitnehmer, der in den </tspan></text><text class="cls-10" transform="translate(0 20.34)"><tspan x="0" y="0">nächs</tspan><tspan class="cls-1" x="23.9" y="0">t</tspan><tspan class="cls-13" x="27.15" y="0">en 12 Jah</tspan><tspan class="cls-8" x="66.31" y="0">r</tspan><tspan class="cls-13" x="69.25" y="0">en in den Ruhe-s</tspan><tspan class="cls-5" x="136.4" y="0">t</tspan><tspan x="139.66" y="0">and geht, wi</tspan><tspan class="cls-8" x="189.36" y="0">r</tspan><tspan x="192.3" y="0">d im </tspan></text><text class="cls-10" transform="translate(0 32.94)"><tspan x="0" y="0">Al</tspan><tspan class="cls-15" x="7.84" y="0">t</tspan><tspan class="cls-13" x="11.1" y="0">er seinen aktuellen </tspan><tspan class="cls-4" x="89.3" y="0">L</tspan><tspan x="93.4" y="0">ebenss</tspan><tspan class="cls-14" x="121.46" y="0">t</tspan><tspan x="124.73" y="0">anda</tspan><tspan class="cls-8" x="145.32" y="0">r</tspan><tspan x="148.26" y="0">d hal</tspan><tspan class="cls-15" x="168.23" y="0">t</tspan><tspan x="171.49" y="0">en </tspan><tspan class="cls-9" x="183.84" y="0">k</tspan><tspan class="cls-13" x="188.05" y="0">önnen. </tspan></text><text class="cls-10" transform="translate(0 45.54)"><tspan x="0" y="0">Den meis</tspan><tspan class="cls-1" x="37.38" y="0">t</tspan><tspan x="40.63" y="0">en Menschen ist das bewusst. </tspan><tspan class="cls-11" x="162.13" y="0">T</tspan><tspan class="cls-7" x="166.24" y="0">r</tspan><tspan x="169.19" y="0">otzdem </tspan></text><text class="cls-10" transform="translate(0 58.14)"><tspan x="0" y="0">so</tspan><tspan class="cls-3" x="9.13" y="0">r</tspan><tspan x="12.09" y="0">gt ein ers</tspan><tspan class="cls-15" x="49.04" y="0">t</tspan><tspan x="52.3" y="0">aunlich g</tspan><tspan class="cls-8" x="88.85" y="0">r</tspan><tspan class="cls-13" x="91.8" y="0">o</tspan><tspan class="cls-1" x="96.89" y="0">ß</tspan><tspan class="cls-13" x="102.3" y="0">er A</tspan><tspan class="cls-15" x="118.18" y="0">nt</tspan><tspan class="cls-13" x="126.64" y="0">eil </tspan><tspan class="cls-9" x="137.95" y="0">g</tspan><tspan x="142.91" y="0">ar nicht oder </tspan></text><text class="cls-10" transform="translate(0 70.74)"><tspan class="cls-9" x="0" y="0">k</tspan><tspan x="4.21" y="0">aum </tspan><tspan class="cls-6" x="25.05" y="0">f</tspan><tspan class="cls-13" x="27.96" y="0">ür spä</tspan><tspan class="cls-12" x="52.69" y="0">t</tspan><tspan x="55.93" y="0">er </tspan><tspan class="cls-2" x="66.18" y="0">v</tspan><tspan x="70.49" y="0">or.</tspan></text></g></svg>