<?xml version="1.0" encoding="UTF-8"?>
<svg id="Ebene_2" xmlns="http://www.w3.org/2000/svg" viewBox="0 0 202.96 72.78">
  <g id="Ebene_1-2" data-name="Ebene_1">
    <g>
      <g>
        <path d="M.68,7.53V1.47h.86l1.94,3.07c.45.71.8,1.35,1.09,1.97h.02c-.07-.82-.09-1.56-.09-2.5V1.47h.74v6.07h-.79l-1.93-3.08c-.42-.67-.83-1.37-1.13-2.03h-.03c.04.77.06,1.5.06,2.51v2.59h-.74Z"/>
        <path d="M7.46,1.95c0,.27-.19.49-.5.49-.28,0-.48-.22-.48-.49s.21-.5.5-.5.49.22.49.5ZM6.58,7.53V3.18h.79v4.36h-.79Z"/>
        <path d="M11.79,7.37c-.21.11-.67.25-1.25.25-1.31,0-2.17-.89-2.17-2.22s.92-2.31,2.34-2.31c.47,0,.88.12,1.1.23l-.18.61c-.19-.11-.49-.21-.92-.21-1,0-1.54.74-1.54,1.65,0,1.01.65,1.63,1.51,1.63.45,0,.75-.12.97-.22l.14.59Z"/>
        <path d="M12.72,1.14h.79v2.72h.02c.13-.23.32-.42.57-.56.23-.13.51-.23.81-.23.59,0,1.52.36,1.52,1.86v2.59h-.79v-2.5c0-.7-.26-1.3-1.01-1.3-.51,0-.92.36-1.06.79-.04.11-.05.23-.05.38v2.63h-.79V1.14Z"/>
        <path d="M18.67,1.92v1.25h1.13v.6h-1.13v2.35c0,.54.15.85.59.85.21,0,.36-.03.46-.05l.04.59c-.15.06-.4.11-.7.11-.37,0-.67-.12-.85-.33-.23-.23-.31-.62-.31-1.13v-2.38h-.68v-.6h.68v-1.04l.77-.21Z"/>
        <path d="M23.04,5.5c.02,1.07.7,1.51,1.49,1.51.57,0,.91-.1,1.21-.23l.13.57c-.28.13-.76.27-1.45.27-1.34,0-2.14-.88-2.14-2.2s.77-2.35,2.04-2.35c1.42,0,1.8,1.25,1.8,2.05,0,.16-.02.29-.03.37h-3.06ZM25.36,4.93c0-.5-.21-1.29-1.1-1.29-.8,0-1.15.74-1.22,1.29h2.31Z"/>
        <path d="M27.99,1.95c0,.27-.19.49-.5.49-.28,0-.48-.22-.48-.49s.21-.5.5-.5.49.22.49.5ZM27.11,7.53V3.18h.79v4.36h-.79Z"/>
        <path d="M29.21,4.36c0-.45,0-.82-.04-1.18h.7l.04.72h.02c.22-.41.72-.82,1.44-.82.6,0,1.54.36,1.54,1.85v2.6h-.79v-2.51c0-.7-.26-1.29-1.01-1.29-.52,0-.93.37-1.06.81-.04.1-.05.23-.05.37v2.62h-.79v-3.18Z"/>
        <path d="M34.21,4.36c0-.45,0-.82-.04-1.18h.69l.04.7h.03c.24-.41.65-.8,1.37-.8.59,0,1.04.36,1.23.87h.02c.14-.24.31-.43.49-.57.26-.2.55-.31.96-.31.58,0,1.43.38,1.43,1.89v2.57h-.77v-2.47c0-.84-.31-1.34-.95-1.34-.45,0-.8.33-.94.72-.04.11-.06.25-.06.4v2.69h-.77v-2.61c0-.69-.31-1.2-.91-1.2-.5,0-.85.4-.98.79-.05.12-.06.25-.06.39v2.63h-.77v-3.18Z"/>
        <path d="M44.13,7.53l-.06-.55h-.03c-.24.34-.71.65-1.33.65-.88,0-1.33-.62-1.33-1.25,0-1.05.94-1.63,2.62-1.62v-.09c0-.36-.1-1.01-.99-1.01-.4,0-.83.13-1.13.32l-.18-.52c.36-.23.88-.39,1.43-.39,1.33,0,1.66.91,1.66,1.78v1.63c0,.38.02.75.07,1.04h-.72ZM44.01,5.31c-.86-.02-1.85.13-1.85.98,0,.51.34.76.75.76.57,0,.93-.36,1.05-.73.03-.08.05-.17.05-.25v-.76Z"/>
        <path d="M46.05,1.14h.79v6.39h-.79V1.14Z"/>
        <path d="M49.02,8.79c.36-.03.68-.13.86-.33.22-.25.3-.59.3-1.64v-3.65h.79v3.95c0,.85-.13,1.4-.52,1.79-.35.35-.93.5-1.35.5l-.08-.62ZM51.07,1.95c0,.26-.18.49-.5.49-.3,0-.49-.23-.49-.49,0-.28.21-.5.5-.5s.48.22.48.5Z"/>
        <path d="M52.71,5.5c.02,1.07.7,1.51,1.49,1.51.57,0,.91-.1,1.21-.23l.13.57c-.28.13-.76.27-1.45.27-1.34,0-2.14-.88-2.14-2.2s.77-2.35,2.04-2.35c1.42,0,1.8,1.25,1.8,2.05,0,.16-.02.29-.03.37h-3.06ZM55.04,4.93c0-.5-.21-1.29-1.1-1.29-.8,0-1.15.74-1.22,1.29h2.31Z"/>
        <path d="M60.54,1.14v5.27c0,.39,0,.83.04,1.13h-.71l-.04-.76h-.02c-.24.49-.77.86-1.49.86-1.05,0-1.86-.89-1.86-2.21,0-1.45.89-2.34,1.95-2.34.67,0,1.12.32,1.31.67h.02V1.14h.79ZM59.75,4.95c0-.1,0-.23-.04-.33-.12-.5-.55-.92-1.14-.92-.82,0-1.31.72-1.31,1.68,0,.88.43,1.61,1.29,1.61.53,0,1.02-.35,1.16-.95.03-.11.04-.22.04-.34v-.76Z"/>
        <path d="M62.3,5.5c.02,1.07.7,1.51,1.49,1.51.57,0,.91-.1,1.21-.23l.13.57c-.28.13-.76.27-1.45.27-1.34,0-2.14-.88-2.14-2.2s.77-2.35,2.04-2.35c1.42,0,1.8,1.25,1.8,2.05,0,.16-.02.29-.03.37h-3.06ZM64.62,4.93c0-.5-.21-1.29-1.1-1.29-.8,0-1.15.74-1.22,1.29h2.31Z"/>
        <path d="M66.37,4.54c0-.51,0-.95-.04-1.36h.69l.03.86h.04c.2-.59.68-.95,1.21-.95.09,0,.15,0,.22.03v.75c-.08-.02-.16-.03-.27-.03-.56,0-.95.42-1.06,1.02-.02.11-.04.23-.04.37v2.32h-.78v-3Z"/>
        <path d="M70.72,7.07l1.97-2.57c.19-.23.37-.44.57-.68v-.02h-2.36v-.64h3.32v.5s-1.95,2.53-1.95,2.53c-.18.24-.36.46-.56.68v.02h2.55v.63h-3.54v-.46Z"/>
        <path d="M75.38,3.18l.58,2.21c.13.49.24.94.32,1.39h.03c.1-.44.24-.91.39-1.38l.71-2.22h.67l.68,2.18c.16.52.29.98.39,1.42h.03c.07-.44.19-.9.33-1.41l.62-2.19h.78l-1.4,4.36h-.72l-.67-2.08c-.15-.49-.28-.92-.39-1.43h-.02c-.11.52-.24.97-.4,1.44l-.7,2.07h-.72l-1.31-4.36h.81Z"/>
        <path d="M82.04,5.5c.02,1.07.7,1.51,1.49,1.51.57,0,.91-.1,1.21-.23l.13.57c-.28.13-.76.27-1.45.27-1.34,0-2.14-.88-2.14-2.2s.77-2.35,2.04-2.35c1.42,0,1.8,1.25,1.8,2.05,0,.16-.02.29-.03.37h-3.06ZM84.37,4.93c0-.5-.21-1.29-1.1-1.29-.8,0-1.15.74-1.22,1.29h2.31Z"/>
        <path d="M86.99,1.95c0,.27-.19.49-.5.49-.28,0-.48-.22-.48-.49s.21-.5.5-.5.49.22.49.5ZM86.11,7.53V3.18h.79v4.36h-.79Z"/>
        <path d="M89.17,1.92v1.25h1.13v.6h-1.13v2.35c0,.54.15.85.59.85.21,0,.36-.03.46-.05l.04.59c-.15.06-.4.11-.7.11-.37,0-.67-.12-.85-.33-.23-.23-.31-.62-.31-1.13v-2.38h-.68v-.6h.68v-1.04l.77-.21Z"/>
        <path d="M91.61,5.5c.02,1.07.7,1.51,1.49,1.51.57,0,.91-.1,1.21-.23l.13.57c-.28.13-.76.27-1.45.27-1.34,0-2.14-.88-2.14-2.2s.77-2.35,2.04-2.35c1.42,0,1.8,1.25,1.8,2.05,0,.16-.02.29-.03.37h-3.06ZM93.93,4.93c0-.5-.21-1.29-1.1-1.29-.8,0-1.15.74-1.22,1.29h2.31Z"/>
        <path d="M98.59,5.62l-.63,1.91h-.81l2.06-6.07h.95l2.07,6.07h-.84l-.65-1.91h-2.15ZM100.58,5.01l-.59-1.75c-.14-.4-.23-.76-.32-1.11h-.02c-.09.36-.19.73-.31,1.1l-.59,1.76h1.83Z"/>
        <path d="M103.09,4.54c0-.51,0-.95-.04-1.36h.69l.03.86h.04c.2-.59.68-.95,1.21-.95.09,0,.15,0,.22.03v.75c-.08-.02-.16-.03-.27-.03-.56,0-.95.42-1.06,1.02-.02.11-.04.23-.04.37v2.32h-.78v-3Z"/>
        <path d="M106,7.53c.02-.3.04-.74.04-1.13V1.14h.78v2.74h.02c.28-.49.78-.8,1.49-.8,1.08,0,1.85.9,1.84,2.22,0,1.56-.98,2.33-1.95,2.33-.63,0-1.13-.24-1.46-.82h-.03l-.04.72h-.68ZM106.82,5.79c0,.1.02.2.04.29.15.55.61.93,1.19.93.83,0,1.32-.68,1.32-1.67,0-.87-.45-1.62-1.3-1.62-.54,0-1.04.37-1.21.97-.02.09-.04.2-.04.32v.78Z"/>
        <path d="M111.6,5.5c.02,1.07.7,1.51,1.49,1.51.57,0,.91-.1,1.21-.23l.13.57c-.28.13-.76.27-1.45.27-1.34,0-2.14-.88-2.14-2.2s.77-2.35,2.04-2.35c1.42,0,1.8,1.25,1.8,2.05,0,.16-.02.29-.03.37h-3.06ZM113.92,4.93c0-.5-.21-1.29-1.1-1.29-.8,0-1.15.74-1.22,1.29h2.31Z"/>
        <path d="M116.55,1.95c0,.27-.19.49-.5.49-.28,0-.48-.22-.48-.49s.21-.5.5-.5.49.22.49.5ZM115.67,7.53V3.18h.79v4.36h-.79Z"/>
        <path d="M118.73,1.92v1.25h1.13v.6h-1.13v2.35c0,.54.15.85.59.85.21,0,.36-.03.46-.05l.04.59c-.15.06-.4.11-.7.11-.37,0-.67-.12-.85-.33-.23-.23-.31-.62-.31-1.13v-2.38h-.68v-.6h.68v-1.04l.77-.21Z"/>
        <path d="M120.75,4.36c0-.45,0-.82-.04-1.18h.7l.05.72h.02c.22-.41.72-.82,1.44-.82.6,0,1.54.36,1.54,1.85v2.6h-.79v-2.51c0-.7-.26-1.29-1.01-1.29-.52,0-.93.37-1.06.81-.04.1-.05.23-.05.37v2.62h-.79v-3.18Z"/>
        <path d="M126.19,5.5c.02,1.07.7,1.51,1.49,1.51.57,0,.91-.1,1.21-.23l.13.57c-.28.13-.76.27-1.45.27-1.34,0-2.14-.88-2.14-2.2s.77-2.35,2.04-2.35c1.42,0,1.8,1.25,1.8,2.05,0,.16-.02.29-.03.37h-3.06ZM128.51,4.93c0-.5-.21-1.29-1.1-1.29-.8,0-1.15.74-1.22,1.29h2.31Z"/>
        <path d="M130.25,1.14h.79v2.72h.02c.13-.23.32-.42.57-.56.23-.13.51-.23.81-.23.59,0,1.52.36,1.52,1.86v2.59h-.79v-2.5c0-.7-.26-1.3-1.01-1.3-.51,0-.92.36-1.06.79-.04.11-.05.23-.05.38v2.63h-.79V1.14Z"/>
        <path d="M135.25,4.36c0-.45,0-.82-.04-1.18h.69l.04.7h.03c.24-.41.65-.8,1.37-.8.59,0,1.04.36,1.23.87h.02c.14-.24.31-.43.49-.57.26-.2.55-.31.96-.31.58,0,1.43.38,1.43,1.89v2.57h-.77v-2.47c0-.84-.31-1.34-.95-1.34-.45,0-.8.33-.94.72-.04.11-.06.25-.06.4v2.69h-.77v-2.61c0-.69-.31-1.2-.91-1.2-.5,0-.85.4-.98.79-.05.12-.06.25-.06.39v2.63h-.77v-3.18Z"/>
        <path d="M143.2,5.5c.02,1.07.7,1.51,1.49,1.51.57,0,.91-.1,1.21-.23l.13.57c-.28.13-.76.27-1.45.27-1.34,0-2.14-.88-2.14-2.2s.77-2.35,2.04-2.35c1.42,0,1.8,1.25,1.8,2.05,0,.16-.02.29-.03.37h-3.06ZM145.52,4.93c0-.5-.21-1.29-1.1-1.29-.8,0-1.15.74-1.22,1.29h2.31Z"/>
        <path d="M147.27,4.54c0-.51,0-.95-.04-1.36h.69l.03.86h.04c.2-.59.68-.95,1.21-.95.09,0,.15,0,.23.03v.75c-.08-.02-.16-.03-.27-.03-.56,0-.95.42-1.06,1.02-.02.11-.04.23-.04.37v2.32h-.78v-3Z"/>
        <path d="M149.69,8.64c.2-.53.44-1.49.54-2.15l.88-.09c-.21.77-.6,1.76-.85,2.19l-.57.05Z"/>
        <path d="M157.74,1.14v5.27c0,.39,0,.83.04,1.13h-.71l-.04-.76h-.02c-.24.49-.77.86-1.49.86-1.05,0-1.86-.89-1.86-2.21,0-1.45.89-2.34,1.95-2.34.67,0,1.12.32,1.31.67h.02V1.14h.79ZM156.95,4.95c0-.1,0-.23-.04-.33-.12-.5-.55-.92-1.14-.92-.82,0-1.31.72-1.31,1.68,0,.88.43,1.61,1.29,1.61.53,0,1.02-.35,1.16-.95.03-.11.04-.22.04-.34v-.76Z"/>
        <path d="M159.5,5.5c.02,1.07.7,1.51,1.49,1.51.57,0,.91-.1,1.21-.23l.13.57c-.28.13-.76.27-1.45.27-1.34,0-2.14-.88-2.14-2.2s.77-2.35,2.04-2.35c1.42,0,1.8,1.25,1.8,2.05,0,.16-.02.29-.03.37h-3.06ZM161.82,4.93c0-.5-.21-1.29-1.1-1.29-.8,0-1.15.74-1.22,1.29h2.31Z"/>
        <path d="M163.56,4.54c0-.51,0-.95-.04-1.36h.69l.03.86h.04c.2-.59.68-.95,1.21-.95.09,0,.15,0,.22.03v.75c-.08-.02-.16-.03-.27-.03-.56,0-.95.42-1.06,1.02-.02.11-.04.23-.04.37v2.32h-.78v-3Z"/>
        <path d="M169.3,1.95c0,.27-.19.49-.5.49-.28,0-.48-.22-.48-.49s.21-.5.5-.5.49.22.49.5ZM168.41,7.53V3.18h.79v4.36h-.79Z"/>
        <path d="M170.52,4.36c0-.45,0-.82-.04-1.18h.7l.04.72h.02c.22-.41.72-.82,1.44-.82.6,0,1.54.36,1.54,1.85v2.6h-.79v-2.51c0-.7-.26-1.29-1.01-1.29-.52,0-.93.37-1.06.81-.04.1-.05.23-.05.37v2.62h-.79v-3.18Z"/>
        <path d="M181.19,1.14v5.27c0,.39,0,.83.04,1.13h-.71l-.04-.76h-.02c-.24.49-.77.86-1.49.86-1.05,0-1.86-.89-1.86-2.21,0-1.45.89-2.34,1.95-2.34.67,0,1.12.32,1.31.67h.02V1.14h.79ZM180.39,4.95c0-.1,0-.23-.04-.33-.12-.5-.55-.92-1.14-.92-.82,0-1.31.72-1.31,1.68,0,.88.43,1.61,1.29,1.61.53,0,1.02-.35,1.16-.95.03-.11.04-.22.04-.34v-.76Z"/>
        <path d="M182.94,5.5c.02,1.07.7,1.51,1.49,1.51.57,0,.91-.1,1.21-.23l.13.57c-.28.13-.76.27-1.45.27-1.34,0-2.14-.88-2.14-2.2s.77-2.35,2.04-2.35c1.42,0,1.8,1.25,1.8,2.05,0,.16-.02.29-.03.37h-3.06ZM185.26,4.93c0-.5-.21-1.29-1.1-1.29-.8,0-1.15.74-1.22,1.29h2.31Z"/>
        <path d="M187.01,4.36c0-.45,0-.82-.04-1.18h.7l.05.72h.02c.22-.41.72-.82,1.44-.82.6,0,1.54.36,1.54,1.85v2.6h-.79v-2.51c0-.7-.26-1.29-1.01-1.29-.52,0-.93.37-1.06.81-.04.1-.05.23-.05.37v2.62h-.79v-3.18Z"/>
      </g>
      <g>
        <path d="M.66,16.96c0-.45,0-.82-.04-1.18h.7l.04.72h.02c.22-.41.72-.82,1.44-.82.6,0,1.54.36,1.54,1.85v2.6h-.79v-2.51c0-.7-.26-1.29-1.01-1.29-.52,0-.93.37-1.06.81-.04.1-.05.23-.05.37v2.62h-.79v-3.18Z"/>
        <path d="M8.06,20.13l-.06-.55h-.03c-.24.34-.71.65-1.33.65-.88,0-1.33-.62-1.33-1.25,0-1.05.94-1.63,2.62-1.62v-.09c0-.36-.1-1.01-.99-1.01-.4,0-.83.13-1.13.32l-.18-.52c.36-.23.88-.39,1.43-.39,1.33,0,1.66.91,1.66,1.78v1.63c0,.38.02.75.07,1.04h-.72ZM5.88,14.54c0-.25.21-.46.46-.46s.44.2.44.46c0,.24-.18.46-.44.46s-.46-.22-.46-.46ZM7.95,17.91c-.86-.02-1.85.14-1.85.98,0,.51.34.76.75.76.57,0,.93-.36,1.05-.73.03-.08.05-.17.05-.25v-.76ZM7.55,14.54c0-.25.2-.46.45-.46s.44.2.44.46c0,.24-.18.46-.44.46s-.45-.22-.45-.46Z"/>
        <path d="M13.1,19.97c-.21.11-.67.25-1.25.25-1.31,0-2.17-.89-2.17-2.22s.92-2.31,2.34-2.31c.47,0,.88.12,1.1.23l-.18.61c-.19-.11-.49-.21-.92-.21-1,0-1.54.74-1.54,1.65,0,1.01.65,1.63,1.51,1.63.45,0,.75-.12.97-.22l.14.59Z"/>
        <path d="M14.02,13.74h.79v2.72h.02c.13-.22.32-.42.57-.56.23-.13.51-.23.81-.23.59,0,1.52.36,1.52,1.86v2.59h-.79v-2.5c0-.7-.26-1.3-1.01-1.3-.51,0-.92.36-1.06.79-.04.11-.05.23-.05.38v2.63h-.79v-6.39Z"/>
        <path d="M18.91,19.32c.23.15.65.31,1.04.31.58,0,.85-.29.85-.65s-.23-.58-.81-.8c-.78-.28-1.15-.71-1.15-1.23,0-.7.57-1.28,1.5-1.28.44,0,.83.13,1.07.27l-.2.58c-.17-.11-.49-.25-.89-.25-.47,0-.73.27-.73.59,0,.36.26.52.83.74.76.29,1.14.67,1.14,1.31,0,.77-.59,1.31-1.63,1.31-.48,0-.92-.12-1.22-.3l.2-.6Z"/>
        <path d="M23.54,14.52v1.25h1.13v.6h-1.13v2.35c0,.54.15.85.59.85.21,0,.36-.03.46-.05l.04.59c-.15.06-.4.11-.7.11-.37,0-.67-.12-.85-.33-.23-.23-.31-.62-.31-1.13v-2.38h-.68v-.6h.68v-1.04l.77-.21Z"/>
        <path d="M25.96,18.1c.02,1.07.7,1.51,1.49,1.51.57,0,.91-.1,1.21-.23l.13.57c-.28.13-.76.27-1.45.27-1.34,0-2.14-.88-2.14-2.2s.77-2.35,2.04-2.35c1.42,0,1.8,1.25,1.8,2.05,0,.16-.02.29-.03.37h-3.06ZM28.29,17.53c0-.5-.21-1.29-1.1-1.29-.8,0-1.15.74-1.22,1.29h2.31Z"/>
        <path d="M30.03,16.96c0-.45,0-.82-.04-1.18h.7l.05.72h.02c.22-.41.72-.82,1.44-.82.6,0,1.54.36,1.54,1.85v2.6h-.79v-2.51c0-.7-.26-1.29-1.01-1.29-.52,0-.93.37-1.06.81-.04.1-.05.23-.05.37v2.62h-.79v-3.18Z"/>
        <path d="M38.4,15.02h-.02l-1.02.55-.15-.6,1.28-.68h.67v5.85h-.77v-5.11Z"/>
        <path d="M41.3,20.13v-.49l.62-.6c1.49-1.42,2.17-2.18,2.18-3.06,0-.59-.29-1.14-1.16-1.14-.53,0-.97.27-1.24.5l-.25-.56c.4-.34.98-.59,1.66-.59,1.26,0,1.79.86,1.79,1.7,0,1.08-.78,1.95-2.02,3.14l-.47.43v.02h2.63v.66h-3.74Z"/>
        <path d="M49.35,14.07h.78v4.06c0,1.61-.79,2.11-1.84,2.11-.29,0-.64-.06-.84-.14l.12-.64c.16.06.4.12.66.12.7,0,1.12-.31,1.12-1.5v-4Z"/>
        <path d="M53.82,20.13l-.06-.55h-.03c-.24.34-.71.65-1.33.65-.88,0-1.33-.62-1.33-1.25,0-1.05.94-1.63,2.62-1.62v-.09c0-.36-.1-1.01-.99-1.01-.4,0-.83.13-1.13.32l-.18-.52c.36-.23.88-.39,1.43-.39,1.33,0,1.66.91,1.66,1.78v1.63c0,.38.02.75.07,1.04h-.72ZM53.7,17.91c-.86-.02-1.85.14-1.85.98,0,.51.34.76.75.76.57,0,.93-.36,1.05-.73.03-.08.05-.17.05-.25v-.76Z"/>
        <path d="M55.75,13.74h.79v2.72h.02c.13-.22.32-.42.57-.56.23-.13.51-.23.81-.23.59,0,1.52.36,1.52,1.86v2.59h-.79v-2.5c0-.7-.26-1.3-1.01-1.3-.51,0-.92.36-1.06.79-.04.11-.05.23-.05.38v2.63h-.79v-6.39Z"/>
        <path d="M60.74,17.14c0-.51,0-.95-.04-1.36h.69l.03.86h.04c.2-.59.68-.95,1.21-.95.09,0,.15,0,.22.03v.75c-.08-.02-.16-.03-.27-.03-.56,0-.95.42-1.06,1.02-.02.11-.04.23-.04.37v2.32h-.78v-3Z"/>
        <path d="M63.94,18.1c.02,1.07.7,1.51,1.49,1.51.57,0,.91-.1,1.21-.23l.13.57c-.28.13-.76.27-1.45.27-1.34,0-2.14-.88-2.14-2.2s.77-2.35,2.04-2.35c1.42,0,1.8,1.25,1.8,2.05,0,.16-.02.29-.03.37h-3.06ZM66.27,17.53c0-.5-.21-1.29-1.1-1.29-.8,0-1.15.74-1.22,1.29h2.31Z"/>
        <path d="M68.01,16.96c0-.45,0-.82-.04-1.18h.7l.05.72h.02c.22-.41.72-.82,1.44-.82.6,0,1.54.36,1.54,1.85v2.6h-.79v-2.51c0-.7-.26-1.29-1.01-1.29-.52,0-.93.37-1.06.81-.04.1-.05.23-.05.37v2.62h-.79v-3.18Z"/>
        <path d="M75.8,14.55c0,.27-.19.49-.5.49-.28,0-.48-.22-.48-.49s.21-.5.5-.5.49.22.49.5ZM74.92,20.13v-4.36h.79v4.36h-.79Z"/>
        <path d="M77.02,16.96c0-.45,0-.82-.04-1.18h.7l.05.72h.02c.22-.41.72-.82,1.44-.82.6,0,1.54.36,1.54,1.85v2.6h-.79v-2.51c0-.7-.26-1.29-1.01-1.29-.52,0-.93.37-1.06.81-.04.1-.05.23-.05.37v2.62h-.79v-3.18Z"/>
        <path d="M87.69,13.74v5.27c0,.39,0,.83.04,1.13h-.71l-.04-.76h-.02c-.24.49-.77.86-1.49.86-1.05,0-1.86-.89-1.86-2.21,0-1.45.89-2.34,1.95-2.34.67,0,1.12.32,1.31.67h.02v-2.6h.79ZM86.89,17.55c0-.1,0-.23-.04-.33-.12-.5-.55-.92-1.14-.92-.82,0-1.31.72-1.31,1.68,0,.88.43,1.61,1.29,1.61.53,0,1.02-.35,1.16-.95.03-.11.04-.22.04-.34v-.76Z"/>
        <path d="M89.44,18.1c.02,1.07.7,1.51,1.49,1.51.57,0,.91-.1,1.21-.23l.13.57c-.28.13-.76.27-1.45.27-1.34,0-2.14-.88-2.14-2.2s.77-2.35,2.04-2.35c1.42,0,1.8,1.25,1.8,2.05,0,.16-.02.29-.03.37h-3.06ZM91.76,17.53c0-.5-.21-1.29-1.1-1.29-.8,0-1.15.74-1.22,1.29h2.31Z"/>
        <path d="M93.51,16.96c0-.45,0-.82-.04-1.18h.7l.04.72h.02c.22-.41.72-.82,1.44-.82.6,0,1.54.36,1.54,1.85v2.6h-.79v-2.51c0-.7-.26-1.29-1.01-1.29-.52,0-.93.37-1.06.81-.04.1-.05.23-.05.37v2.62h-.79v-3.18Z"/>
        <path d="M100.44,14.15c.4-.08.96-.13,1.5-.13.84,0,1.38.15,1.76.5.31.27.48.68.48,1.15,0,.8-.5,1.33-1.14,1.55v.03c.47.16.75.59.89,1.22.2.85.34,1.43.47,1.67h-.81c-.1-.17-.23-.69-.41-1.45-.18-.84-.5-1.15-1.22-1.18h-.74v2.63h-.78v-5.99ZM101.22,16.91h.8c.84,0,1.37-.46,1.37-1.15,0-.78-.57-1.12-1.4-1.13-.38,0-.65.04-.77.07v2.21Z"/>
        <path d="M108.9,18.94c0,.45,0,.85.04,1.19h-.7l-.04-.71h-.02c-.21.35-.67.81-1.44.81-.68,0-1.5-.38-1.5-1.91v-2.55h.79v2.41c0,.83.25,1.39.97,1.39.53,0,.9-.37,1.04-.72.04-.12.07-.26.07-.41v-2.67h.79v3.17Z"/>
        <path d="M110.21,13.74h.79v2.72h.02c.13-.22.32-.42.57-.56.23-.13.51-.23.81-.23.59,0,1.52.36,1.52,1.86v2.59h-.79v-2.5c0-.7-.26-1.3-1.01-1.3-.51,0-.92.36-1.06.79-.04.11-.05.23-.05.38v2.63h-.79v-6.39Z"/>
        <path d="M115.65,18.1c.02,1.07.7,1.51,1.49,1.51.57,0,.91-.1,1.21-.23l.13.57c-.28.13-.76.27-1.45.27-1.34,0-2.14-.88-2.14-2.2s.77-2.35,2.04-2.35c1.42,0,1.8,1.25,1.8,2.05,0,.16-.02.29-.03.37h-3.06ZM117.97,17.53c0-.5-.21-1.29-1.1-1.29-.8,0-1.15.74-1.22,1.29h2.31Z"/>
        <path d="M121.55,17.41v.59h-2.22v-.59h2.22Z"/>
        <path d="M122.37,19.32c.23.15.65.31,1.04.31.58,0,.85-.29.85-.65s-.23-.58-.81-.8c-.78-.28-1.15-.71-1.15-1.23,0-.7.57-1.28,1.5-1.28.44,0,.83.13,1.07.27l-.2.58c-.17-.11-.49-.25-.89-.25-.47,0-.73.27-.73.59,0,.36.26.52.83.74.76.29,1.14.67,1.14,1.31,0,.77-.59,1.31-1.63,1.31-.48,0-.92-.12-1.22-.3l.2-.6Z"/>
        <path d="M127,14.52v1.25h1.13v.6h-1.13v2.35c0,.54.15.85.59.85.21,0,.36-.03.46-.05l.04.59c-.15.06-.4.11-.7.11-.37,0-.67-.12-.85-.33-.23-.23-.31-.62-.31-1.13v-2.38h-.68v-.6h.68v-1.04l.77-.21Z"/>
        <path d="M131.41,20.13l-.06-.55h-.03c-.24.34-.71.65-1.33.65-.88,0-1.33-.62-1.33-1.25,0-1.05.94-1.63,2.62-1.62v-.09c0-.36-.1-1.01-.99-1.01-.4,0-.83.13-1.13.32l-.18-.52c.36-.23.88-.39,1.43-.39,1.33,0,1.66.91,1.66,1.78v1.63c0,.38.02.75.07,1.04h-.72ZM131.29,17.91c-.86-.02-1.85.14-1.85.98,0,.51.34.76.75.76.57,0,.93-.36,1.05-.73.03-.08.05-.17.05-.25v-.76Z"/>
        <path d="M133.33,16.96c0-.45,0-.82-.04-1.18h.7l.04.72h.02c.22-.41.72-.82,1.44-.82.6,0,1.54.36,1.54,1.85v2.6h-.79v-2.51c0-.7-.26-1.29-1.01-1.29-.52,0-.93.37-1.06.81-.04.1-.05.23-.05.37v2.62h-.79v-3.18Z"/>
        <path d="M142.09,13.74v5.27c0,.39,0,.83.04,1.13h-.71l-.04-.76h-.02c-.24.49-.77.86-1.49.86-1.05,0-1.86-.89-1.86-2.21,0-1.45.89-2.34,1.95-2.34.67,0,1.12.32,1.31.67h.02v-2.6h.79ZM141.3,17.55c0-.1,0-.23-.04-.33-.12-.5-.55-.92-1.14-.92-.82,0-1.31.72-1.31,1.68,0,.88.43,1.61,1.29,1.61.53,0,1.02-.35,1.16-.95.03-.11.04-.22.04-.34v-.76Z"/>
        <path d="M149.07,15.78c-.02.32-.04.67-.04,1.2v2.53c0,1-.2,1.61-.62,1.99-.42.4-1.04.52-1.58.52s-1.1-.13-1.45-.36l.2-.6c.29.18.74.34,1.28.34.81,0,1.4-.42,1.4-1.52v-.49h-.02c-.24.4-.71.73-1.39.73-1.08,0-1.85-.92-1.85-2.12,0-1.48.96-2.31,1.96-2.31.76,0,1.17.4,1.36.76h.02l.04-.66h.69ZM148.25,17.5c0-.14,0-.25-.05-.36-.14-.46-.53-.84-1.11-.84-.76,0-1.3.64-1.3,1.65,0,.85.43,1.57,1.29,1.57.49,0,.93-.31,1.1-.81.05-.13.06-.29.06-.42v-.78Z"/>
        <path d="M150.78,18.1c.02,1.07.7,1.51,1.49,1.51.57,0,.91-.1,1.21-.23l.13.57c-.28.13-.76.27-1.45.27-1.34,0-2.14-.88-2.14-2.2s.77-2.35,2.04-2.35c1.42,0,1.8,1.25,1.8,2.05,0,.16-.02.29-.03.37h-3.06ZM153.11,17.53c0-.5-.21-1.29-1.1-1.29-.8,0-1.15.74-1.22,1.29h2.31Z"/>
        <path d="M154.85,13.74h.79v2.72h.02c.13-.22.32-.42.57-.56.23-.13.51-.23.81-.23.59,0,1.52.36,1.52,1.86v2.59h-.79v-2.5c0-.7-.26-1.3-1.01-1.3-.51,0-.92.36-1.06.79-.04.11-.05.23-.05.38v2.63h-.79v-6.39Z"/>
        <path d="M160.8,14.52v1.25h1.13v.6h-1.13v2.35c0,.54.15.85.59.85.21,0,.36-.03.46-.05l.04.59c-.15.06-.4.11-.7.11-.37,0-.67-.12-.85-.33-.23-.23-.31-.62-.31-1.13v-2.38h-.68v-.6h.68v-1.04l.77-.21Z"/>
        <path d="M162.31,21.24c.2-.53.44-1.49.54-2.15l.88-.09c-.21.77-.6,1.76-.85,2.19l-.57.05Z"/>
        <path d="M166.91,15.78l.58,2.21c.13.49.24.94.32,1.39h.03c.1-.44.24-.91.39-1.38l.71-2.22h.67l.68,2.18c.16.52.29.98.39,1.42h.03c.07-.44.19-.9.33-1.41l.62-2.19h.78l-1.4,4.36h-.72l-.67-2.08c-.15-.49-.28-.92-.39-1.43h-.02c-.11.52-.24.97-.4,1.44l-.7,2.07h-.72l-1.31-4.36h.81Z"/>
        <path d="M174.1,14.55c0,.27-.19.49-.5.49-.28,0-.48-.22-.48-.49s.21-.5.5-.5.49.22.49.5ZM173.22,20.13v-4.36h.79v4.36h-.79Z"/>
        <path d="M175.33,17.14c0-.51,0-.95-.04-1.36h.69l.03.86h.04c.2-.59.68-.95,1.21-.95.09,0,.15,0,.22.03v.75c-.08-.02-.16-.03-.27-.03-.56,0-.95.42-1.06,1.02-.02.11-.04.23-.04.37v2.32h-.78v-3Z"/>
        <path d="M181.85,13.74v5.27c0,.39,0,.83.04,1.13h-.71l-.04-.76h-.02c-.24.49-.77.86-1.49.86-1.05,0-1.86-.89-1.86-2.21,0-1.45.89-2.34,1.95-2.34.67,0,1.12.32,1.31.67h.02v-2.6h.79ZM181.06,17.55c0-.1,0-.23-.04-.33-.12-.5-.55-.92-1.14-.92-.82,0-1.31.72-1.31,1.68,0,.88.43,1.61,1.29,1.61.53,0,1.02-.35,1.16-.95.03-.11.04-.22.04-.34v-.76Z"/>
        <path d="M185.96,14.55c0,.27-.19.49-.5.49-.28,0-.48-.22-.48-.49s.21-.5.5-.5.49.22.49.5ZM185.07,20.13v-4.36h.79v4.36h-.79Z"/>
        <path d="M187.18,16.96c0-.45,0-.82-.04-1.18h.69l.04.7h.03c.24-.41.65-.8,1.37-.8.59,0,1.04.36,1.23.87h.02c.14-.24.31-.43.49-.57.26-.2.55-.31.96-.31.58,0,1.43.38,1.43,1.89v2.57h-.77v-2.47c0-.84-.31-1.34-.95-1.34-.45,0-.8.33-.94.72-.04.11-.06.25-.06.4v2.69h-.77v-2.61c0-.69-.31-1.2-.91-1.2-.5,0-.85.4-.98.79-.05.12-.06.25-.06.39v2.63h-.77v-3.18Z"/>
      </g>
      <g>
        <path d="M1.67,30.82l-.63,1.91H.23l2.06-6.07h.95l2.07,6.07h-.84l-.65-1.91H1.67ZM3.66,30.21l-.59-1.75c-.14-.4-.23-.76-.32-1.11h-.02c-.09.36-.19.73-.31,1.1l-.59,1.76h1.83Z"/>
        <path d="M6.17,26.34h.79v6.39h-.79v-6.39Z"/>
        <path d="M9.24,27.12v1.25h1.13v.6h-1.13v2.35c0,.54.15.85.59.85.21,0,.36-.03.46-.05l.04.59c-.15.06-.4.11-.7.11-.37,0-.67-.12-.85-.33-.23-.23-.31-.62-.31-1.13v-2.38h-.68v-.6h.68v-1.04l.77-.21Z"/>
        <path d="M11.68,30.7c.02,1.07.7,1.51,1.49,1.51.57,0,.91-.1,1.21-.23l.13.57c-.28.13-.76.27-1.45.27-1.34,0-2.14-.88-2.14-2.2s.77-2.35,2.04-2.35c1.42,0,1.8,1.25,1.8,2.05,0,.16-.02.29-.03.37h-3.06ZM14,30.13c0-.5-.21-1.29-1.1-1.29-.8,0-1.15.74-1.22,1.29h2.31Z"/>
        <path d="M15.75,29.73c0-.51,0-.95-.04-1.36h.69l.03.86h.04c.2-.59.68-.95,1.21-.95.09,0,.15,0,.22.03v.75c-.08-.02-.16-.03-.27-.03-.56,0-.95.42-1.06,1.02-.02.11-.04.23-.04.37v2.32h-.78v-3Z"/>
        <path d="M20.49,31.92c.23.15.65.31,1.04.31.58,0,.85-.29.85-.65s-.23-.58-.81-.8c-.78-.28-1.15-.71-1.15-1.23,0-.7.57-1.28,1.5-1.28.44,0,.83.13,1.07.27l-.2.58c-.17-.11-.49-.25-.89-.25-.47,0-.73.27-.73.59,0,.36.26.52.83.74.76.29,1.14.67,1.14,1.31,0,.77-.59,1.31-1.63,1.31-.48,0-.92-.12-1.22-.3l.2-.6Z"/>
        <path d="M24.61,30.7c.02,1.07.7,1.51,1.49,1.51.57,0,.91-.1,1.21-.23l.13.57c-.28.13-.76.27-1.45.27-1.34,0-2.14-.88-2.14-2.2s.77-2.35,2.04-2.35c1.42,0,1.8,1.25,1.8,2.05,0,.16-.02.29-.03.37h-3.06ZM26.93,30.13c0-.5-.21-1.29-1.1-1.29-.8,0-1.15.74-1.22,1.29h2.31Z"/>
        <path d="M29.56,27.15c0,.27-.19.49-.5.49-.28,0-.48-.22-.48-.49s.21-.5.5-.5.49.22.49.5ZM28.67,32.73v-4.36h.79v4.36h-.79Z"/>
        <path d="M30.78,29.56c0-.45,0-.82-.04-1.18h.7l.05.72h.02c.22-.41.72-.82,1.44-.82.6,0,1.54.36,1.54,1.85v2.6h-.79v-2.51c0-.7-.26-1.29-1.01-1.29-.52,0-.93.37-1.06.81-.04.1-.05.23-.05.37v2.62h-.79v-3.18Z"/>
        <path d="M36.22,30.7c.02,1.07.7,1.51,1.49,1.51.57,0,.91-.1,1.21-.23l.13.57c-.28.13-.76.27-1.45.27-1.34,0-2.14-.88-2.14-2.2s.77-2.35,2.04-2.35c1.42,0,1.8,1.25,1.8,2.05,0,.16-.02.29-.03.37h-3.06ZM38.54,30.13c0-.5-.21-1.29-1.1-1.29-.8,0-1.15.74-1.22,1.29h2.31Z"/>
        <path d="M40.28,29.56c0-.45,0-.82-.04-1.18h.7l.05.72h.02c.22-.41.72-.82,1.44-.82.6,0,1.54.36,1.54,1.85v2.6h-.79v-2.51c0-.7-.26-1.29-1.01-1.29-.52,0-.93.37-1.06.81-.04.1-.05.23-.05.37v2.62h-.79v-3.18Z"/>
        <path d="M49.6,32.73l-.06-.55h-.03c-.24.34-.71.65-1.33.65-.88,0-1.33-.62-1.33-1.25,0-1.05.94-1.63,2.62-1.62v-.09c0-.36-.1-1.01-.99-1.01-.4,0-.83.13-1.13.32l-.18-.52c.36-.23.88-.39,1.43-.39,1.33,0,1.66.91,1.66,1.78v1.63c0,.38.02.75.07,1.04h-.72ZM49.48,30.51c-.86-.02-1.85.14-1.85.98,0,.51.34.76.75.76.57,0,.93-.36,1.05-.73.03-.08.05-.17.05-.25v-.76Z"/>
        <path d="M52.31,30.37h.02c.11-.15.26-.34.39-.5l1.28-1.5h.95l-1.68,1.79,1.92,2.57h-.96l-1.5-2.09-.41.45v1.64h-.78v-6.39h.78v4.03Z"/>
        <path d="M56.7,27.12v1.25h1.13v.6h-1.13v2.35c0,.54.15.85.59.85.21,0,.36-.03.46-.05l.04.59c-.15.06-.4.11-.7.11-.37,0-.67-.12-.85-.33-.23-.23-.31-.62-.31-1.13v-2.38h-.68v-.6h.68v-1.04l.77-.21Z"/>
        <path d="M62.37,31.54c0,.45,0,.85.04,1.19h-.7l-.04-.71h-.02c-.21.35-.67.81-1.44.81-.68,0-1.5-.38-1.5-1.91v-2.55h.79v2.41c0,.83.25,1.39.97,1.39.53,0,.9-.37,1.04-.72.04-.12.07-.26.07-.41v-2.67h.79v3.17Z"/>
        <path d="M64.12,30.7c.02,1.07.7,1.51,1.49,1.51.57,0,.91-.1,1.21-.23l.13.57c-.28.13-.76.27-1.45.27-1.34,0-2.14-.88-2.14-2.2s.77-2.35,2.04-2.35c1.42,0,1.8,1.25,1.8,2.05,0,.16-.02.29-.03.37h-3.06ZM66.45,30.13c0-.5-.21-1.29-1.1-1.29-.8,0-1.15.74-1.22,1.29h2.31Z"/>
        <path d="M68.19,26.34h.79v6.39h-.79v-6.39Z"/>
        <path d="M70.32,26.34h.79v6.39h-.79v-6.39Z"/>
        <path d="M72.88,30.7c.02,1.07.7,1.51,1.49,1.51.57,0,.91-.1,1.21-.23l.13.57c-.28.13-.76.27-1.45.27-1.34,0-2.14-.88-2.14-2.2s.77-2.35,2.04-2.35c1.42,0,1.8,1.25,1.8,2.05,0,.16-.02.29-.03.37h-3.06ZM75.2,30.13c0-.5-.21-1.29-1.1-1.29-.8,0-1.15.74-1.22,1.29h2.31Z"/>
        <path d="M76.95,29.56c0-.45,0-.82-.04-1.18h.7l.05.72h.02c.22-.41.72-.82,1.44-.82.6,0,1.54.36,1.54,1.85v2.6h-.79v-2.51c0-.7-.26-1.29-1.01-1.29-.52,0-.93.37-1.06.81-.04.1-.05.23-.05.37v2.62h-.79v-3.18Z"/>
        <path d="M83.88,26.67h.78v5.41h2.59v.66h-3.38v-6.07Z"/>
        <path d="M88.19,30.7c.02,1.07.7,1.51,1.49,1.51.57,0,.91-.1,1.21-.23l.13.57c-.28.13-.76.27-1.45.27-1.34,0-2.14-.88-2.14-2.2s.77-2.35,2.04-2.35c1.42,0,1.8,1.25,1.8,2.05,0,.16-.02.29-.03.37h-3.06ZM90.51,30.13c0-.5-.21-1.29-1.1-1.29-.8,0-1.15.74-1.22,1.29h2.31Z"/>
        <path d="M92.22,32.73c.02-.3.04-.74.04-1.13v-5.27h.78v2.74h.02c.28-.49.78-.8,1.49-.8,1.08,0,1.85.9,1.84,2.22,0,1.56-.98,2.33-1.95,2.33-.63,0-1.13-.24-1.46-.82h-.03l-.04.72h-.68ZM93.04,30.99c0,.1.02.2.04.29.15.55.61.93,1.19.93.83,0,1.32-.68,1.32-1.67,0-.87-.45-1.62-1.3-1.62-.54,0-1.04.37-1.21.97-.02.09-.04.2-.04.32v.78Z"/>
        <path d="M97.82,30.7c.02,1.07.7,1.51,1.49,1.51.57,0,.91-.1,1.21-.23l.13.57c-.28.13-.76.27-1.45.27-1.34,0-2.14-.88-2.14-2.2s.77-2.35,2.04-2.35c1.42,0,1.8,1.25,1.8,2.05,0,.16-.02.29-.03.37h-3.06ZM100.14,30.13c0-.5-.21-1.29-1.1-1.29-.8,0-1.15.74-1.22,1.29h2.31Z"/>
        <path d="M101.89,29.56c0-.45,0-.82-.04-1.18h.7l.05.72h.02c.22-.41.72-.82,1.44-.82.6,0,1.54.36,1.54,1.85v2.6h-.79v-2.51c0-.7-.26-1.29-1.01-1.29-.52,0-.93.37-1.06.81-.04.1-.05.23-.05.37v2.62h-.79v-3.18Z"/>
        <path d="M106.77,31.92c.23.15.65.31,1.04.31.58,0,.85-.29.85-.65s-.23-.58-.81-.8c-.78-.28-1.15-.71-1.15-1.23,0-.7.57-1.28,1.5-1.28.44,0,.83.13,1.07.27l-.2.58c-.17-.11-.49-.25-.89-.25-.47,0-.73.27-.73.59,0,.36.26.52.83.74.76.29,1.14.67,1.14,1.31,0,.77-.59,1.31-1.63,1.31-.48,0-.92-.12-1.22-.3l.2-.6Z"/>
        <path d="M110.34,31.92c.23.15.65.31,1.04.31.58,0,.85-.29.85-.65s-.23-.58-.81-.8c-.78-.28-1.15-.71-1.15-1.23,0-.7.57-1.28,1.5-1.28.44,0,.83.13,1.07.27l-.2.58c-.17-.11-.49-.25-.89-.25-.47,0-.73.27-.73.59,0,.36.26.52.83.74.76.29,1.14.67,1.14,1.31,0,.77-.59,1.31-1.63,1.31-.48,0-.92-.12-1.22-.3l.2-.6Z"/>
        <path d="M114.96,27.12v1.25h1.13v.6h-1.13v2.35c0,.54.15.85.59.85.21,0,.36-.03.46-.05l.04.59c-.15.06-.4.11-.7.11-.37,0-.67-.12-.85-.33-.23-.23-.31-.62-.31-1.13v-2.38h-.68v-.6h.68v-1.04l.77-.21Z"/>
        <path d="M119.38,32.73l-.06-.55h-.03c-.24.34-.71.65-1.33.65-.88,0-1.33-.62-1.33-1.25,0-1.05.94-1.63,2.62-1.62v-.09c0-.36-.1-1.01-.99-1.01-.41,0-.83.13-1.13.32l-.18-.52c.36-.23.88-.39,1.43-.39,1.33,0,1.66.91,1.66,1.78v1.63c0,.38.02.75.07,1.04h-.72ZM119.27,30.51c-.86-.02-1.85.14-1.85.98,0,.51.34.76.75.76.57,0,.93-.36,1.05-.73.03-.08.04-.17.04-.25v-.76Z"/>
        <path d="M121.31,29.56c0-.45,0-.82-.04-1.18h.7l.05.72h.02c.22-.41.72-.82,1.44-.82.6,0,1.54.36,1.54,1.85v2.6h-.79v-2.51c0-.7-.26-1.29-1.01-1.29-.52,0-.93.37-1.06.81-.04.1-.05.23-.05.37v2.62h-.79v-3.18Z"/>
        <path d="M130.07,26.34v5.27c0,.39,0,.83.04,1.13h-.71l-.04-.76h-.02c-.24.49-.77.86-1.49.86-1.05,0-1.86-.89-1.86-2.21,0-1.45.89-2.34,1.95-2.34.67,0,1.12.32,1.31.67h.02v-2.6h.79ZM129.27,30.15c0-.1,0-.23-.04-.33-.12-.5-.55-.92-1.14-.92-.82,0-1.31.72-1.31,1.68,0,.88.43,1.61,1.29,1.61.53,0,1.02-.35,1.16-.95.03-.11.04-.22.04-.34v-.76Z"/>
        <path d="M133.79,32.73l-.06-.55h-.03c-.24.34-.71.65-1.33.65-.88,0-1.33-.62-1.33-1.25,0-1.05.94-1.63,2.62-1.62v-.09c0-.36-.1-1.01-.99-1.01-.4,0-.83.13-1.13.32l-.18-.52c.36-.23.88-.39,1.43-.39,1.33,0,1.66.91,1.66,1.78v1.63c0,.38.02.75.07,1.04h-.72ZM133.68,30.51c-.86-.02-1.85.14-1.85.98,0,.51.34.76.75.76.57,0,.93-.36,1.05-.73.03-.08.05-.17.05-.25v-.76Z"/>
        <path d="M135.72,29.73c0-.51,0-.95-.04-1.36h.69l.03.86h.04c.2-.59.68-.95,1.21-.95.09,0,.15,0,.22.03v.75c-.08-.02-.16-.03-.27-.03-.56,0-.95.42-1.06,1.02-.02.11-.04.23-.04.37v2.32h-.78v-3Z"/>
        <path d="M142.24,26.34v5.27c0,.39,0,.83.04,1.13h-.71l-.04-.76h-.02c-.24.49-.77.86-1.49.86-1.05,0-1.86-.89-1.86-2.21,0-1.45.89-2.34,1.95-2.34.67,0,1.12.32,1.31.67h.02v-2.6h.79ZM141.45,30.15c0-.1,0-.23-.04-.33-.12-.5-.55-.92-1.14-.92-.82,0-1.31.72-1.31,1.68,0,.88.43,1.61,1.29,1.61.53,0,1.02-.35,1.16-.95.03-.11.04-.22.04-.34v-.76Z"/>
        <path d="M145.46,26.34h.79v2.72h.02c.13-.22.32-.42.57-.56.23-.13.51-.23.81-.23.59,0,1.52.36,1.52,1.86v2.59h-.79v-2.5c0-.7-.26-1.3-1.01-1.3-.51,0-.92.36-1.06.79-.04.11-.05.23-.05.38v2.63h-.79v-6.39Z"/>
        <path d="M152.87,32.73l-.06-.55h-.03c-.24.34-.71.65-1.33.65-.88,0-1.33-.62-1.33-1.25,0-1.05.94-1.63,2.62-1.62v-.09c0-.36-.1-1.01-.99-1.01-.4,0-.83.13-1.13.32l-.18-.52c.36-.23.88-.39,1.43-.39,1.33,0,1.66.91,1.66,1.78v1.63c0,.38.02.75.07,1.04h-.72ZM152.76,30.51c-.86-.02-1.85.14-1.85.98,0,.51.34.76.75.76.57,0,.93-.36,1.05-.73.03-.08.05-.17.05-.25v-.76Z"/>
        <path d="M154.8,26.34h.79v6.39h-.79v-6.39Z"/>
        <path d="M157.88,27.12v1.25h1.13v.6h-1.13v2.35c0,.54.15.85.59.85.21,0,.36-.03.46-.05l.04.59c-.15.06-.4.11-.7.11-.37,0-.67-.12-.85-.33-.23-.23-.31-.62-.31-1.13v-2.38h-.68v-.6h.68v-1.04l.77-.21Z"/>
        <path d="M160.31,30.7c.02,1.07.7,1.51,1.49,1.51.57,0,.91-.1,1.21-.23l.13.57c-.28.13-.76.27-1.45.27-1.34,0-2.14-.88-2.14-2.2s.77-2.35,2.04-2.35c1.42,0,1.8,1.25,1.8,2.05,0,.16-.02.29-.03.37h-3.06ZM162.64,30.13c0-.5-.21-1.29-1.1-1.29-.8,0-1.15.74-1.22,1.29h2.31Z"/>
        <path d="M164.38,29.56c0-.45,0-.82-.04-1.18h.7l.05.72h.02c.22-.41.72-.82,1.44-.82.6,0,1.54.36,1.54,1.85v2.6h-.79v-2.51c0-.7-.26-1.29-1.01-1.29-.52,0-.93.37-1.06.81-.04.1-.05.23-.05.37v2.62h-.79v-3.18Z"/>
        <path d="M172.07,30.37h.02c.11-.15.26-.34.39-.5l1.28-1.5h.95l-1.68,1.79,1.92,2.57h-.96l-1.5-2.09-.41.45v1.64h-.78v-6.39h.78v4.03Z"/>
        <path d="M179.36,30.52c0,1.61-1.12,2.31-2.17,2.31-1.18,0-2.09-.86-2.09-2.24,0-1.46.95-2.31,2.16-2.31s2.1.91,2.1,2.24ZM175.9,30.56c0,.95.55,1.67,1.32,1.67s1.32-.71,1.32-1.69c0-.74-.37-1.67-1.31-1.67s-1.34.86-1.34,1.69ZM175.94,27.14c0-.25.21-.46.46-.46s.44.2.44.46c0,.24-.18.46-.44.46s-.46-.22-.46-.46ZM177.61,27.14c0-.25.2-.46.45-.46s.44.2.44.46c0,.24-.18.46-.44.46s-.45-.22-.45-.46Z"/>
        <path d="M180.36,29.56c0-.45,0-.82-.04-1.18h.7l.04.72h.02c.22-.41.72-.82,1.44-.82.6,0,1.54.36,1.54,1.85v2.6h-.79v-2.51c0-.7-.26-1.29-1.01-1.29-.52,0-.93.37-1.06.81-.04.1-.05.23-.05.37v2.62h-.79v-3.18Z"/>
        <path d="M185.35,29.56c0-.45,0-.82-.04-1.18h.7l.05.72h.02c.22-.41.72-.82,1.44-.82.6,0,1.54.36,1.54,1.85v2.6h-.79v-2.51c0-.7-.26-1.29-1.01-1.29-.52,0-.93.37-1.06.81-.04.1-.05.23-.05.37v2.62h-.79v-3.18Z"/>
        <path d="M190.79,30.7c.02,1.07.7,1.51,1.49,1.51.57,0,.91-.1,1.21-.23l.13.57c-.28.13-.76.27-1.45.27-1.34,0-2.14-.88-2.14-2.2s.77-2.35,2.04-2.35c1.42,0,1.8,1.25,1.8,2.05,0,.16-.02.29-.03.37h-3.06ZM193.11,30.13c0-.5-.21-1.29-1.1-1.29-.8,0-1.15.74-1.22,1.29h2.31Z"/>
        <path d="M194.86,29.56c0-.45,0-.82-.04-1.18h.7l.05.72h.02c.22-.41.72-.82,1.44-.82.6,0,1.54.36,1.54,1.85v2.6h-.79v-2.51c0-.7-.26-1.29-1.01-1.29-.52,0-.93.37-1.06.81-.04.1-.05.23-.05.37v2.62h-.79v-3.18Z"/>
        <path d="M199.66,32.26c0-.33.23-.57.54-.57s.53.23.53.57-.21.57-.54.57c-.32,0-.53-.24-.53-.57Z"/>
      </g>
      <g>
        <path d="M.68,39.35c.48-.07,1.04-.13,1.67-.13,1.13,0,1.93.26,2.46.76.54.5.85,1.2.85,2.18s-.31,1.8-.87,2.36c-.57.57-1.5.87-2.68.87-.56,0-1.03-.03-1.42-.07v-5.97ZM1.47,44.71c.2.04.49.04.79.04,1.67,0,2.58-.94,2.58-2.57,0-1.43-.8-2.34-2.46-2.34-.41,0-.71.04-.92.08v4.79Z"/>
        <path d="M7.09,43.3c.02,1.07.7,1.51,1.49,1.51.57,0,.91-.1,1.21-.23l.13.57c-.28.13-.76.27-1.45.27-1.34,0-2.14-.88-2.14-2.2s.77-2.35,2.04-2.35c1.42,0,1.8,1.25,1.8,2.05,0,.16-.02.29-.03.37h-3.06ZM9.41,42.73c0-.5-.21-1.29-1.1-1.29-.8,0-1.15.74-1.22,1.29h2.31Z"/>
        <path d="M11.16,42.16c0-.45,0-.82-.04-1.18h.7l.04.72h.02c.22-.41.72-.82,1.44-.82.6,0,1.54.36,1.54,1.85v2.6h-.79v-2.51c0-.7-.26-1.29-1.01-1.29-.52,0-.93.37-1.06.81-.04.1-.05.23-.05.37v2.62h-.79v-3.18Z"/>
        <path d="M18.06,42.16c0-.45,0-.82-.04-1.18h.69l.04.7h.03c.24-.41.65-.8,1.37-.8.59,0,1.04.36,1.23.87h.02c.14-.24.31-.43.49-.57.26-.2.55-.31.96-.31.58,0,1.43.38,1.43,1.89v2.57h-.77v-2.47c0-.84-.31-1.34-.95-1.34-.45,0-.8.33-.94.72-.04.11-.06.25-.06.4v2.69h-.77v-2.61c0-.69-.31-1.2-.91-1.2-.5,0-.85.4-.98.79-.05.12-.06.25-.06.39v2.63h-.77v-3.18Z"/>
        <path d="M26.01,43.3c.02,1.07.7,1.51,1.49,1.51.57,0,.91-.1,1.21-.23l.13.57c-.28.13-.76.27-1.45.27-1.34,0-2.14-.88-2.14-2.2s.77-2.35,2.04-2.35c1.42,0,1.8,1.25,1.8,2.05,0,.16-.02.29-.03.37h-3.06ZM28.33,42.73c0-.5-.21-1.29-1.1-1.29-.8,0-1.15.74-1.22,1.29h2.31Z"/>
        <path d="M30.96,39.75c0,.27-.19.49-.5.49-.28,0-.48-.22-.48-.49s.21-.5.5-.5.49.22.49.5ZM30.08,45.33v-4.36h.79v4.36h-.79Z"/>
        <path d="M32.08,44.52c.23.15.65.31,1.04.31.58,0,.85-.29.85-.65s-.23-.58-.81-.8c-.78-.28-1.15-.71-1.15-1.23,0-.7.57-1.28,1.5-1.28.44,0,.83.13,1.07.27l-.2.58c-.17-.11-.49-.25-.89-.25-.47,0-.73.27-.73.59,0,.36.26.52.83.74.76.29,1.14.67,1.14,1.31,0,.77-.59,1.31-1.63,1.31-.48,0-.92-.12-1.22-.3l.2-.6Z"/>
        <path d="M36.7,39.72v1.25h1.13v.6h-1.13v2.35c0,.54.15.85.59.85.21,0,.36-.03.46-.05l.04.59c-.15.06-.4.11-.7.11-.37,0-.67-.12-.85-.33-.23-.23-.31-.62-.31-1.13v-2.38h-.68v-.6h.68v-1.04l.77-.21Z"/>
        <path d="M39.13,43.3c.02,1.07.7,1.51,1.49,1.51.57,0,.91-.1,1.21-.23l.13.57c-.28.13-.76.27-1.45.27-1.34,0-2.14-.88-2.14-2.2s.77-2.35,2.04-2.35c1.42,0,1.8,1.25,1.8,2.05,0,.16-.02.29-.03.37h-3.06ZM41.45,42.73c0-.5-.21-1.29-1.1-1.29-.8,0-1.15.74-1.22,1.29h2.31Z"/>
        <path d="M43.2,42.16c0-.45,0-.82-.04-1.18h.7l.05.72h.02c.22-.41.72-.82,1.44-.82.6,0,1.54.36,1.54,1.85v2.6h-.79v-2.51c0-.7-.26-1.29-1.01-1.29-.52,0-.93.37-1.06.81-.04.1-.05.23-.05.37v2.62h-.79v-3.18Z"/>
        <path d="M55.24,42.67c-.04-.85-.1-1.86-.09-2.62h-.03c-.21.71-.46,1.47-.77,2.3l-1.07,2.94h-.59l-.98-2.89c-.29-.86-.53-1.64-.7-2.36h-.02c-.02.76-.06,1.77-.12,2.68l-.16,2.6h-.75l.42-6.07h1l1.04,2.94c.25.75.46,1.41.61,2.04h.03c.15-.61.37-1.28.64-2.04l1.08-2.94h1l.38,6.07h-.77l-.15-2.67Z"/>
        <path d="M57.78,43.3c.02,1.07.7,1.51,1.49,1.51.57,0,.91-.1,1.21-.23l.13.57c-.28.13-.76.27-1.45.27-1.34,0-2.14-.88-2.14-2.2s.77-2.35,2.04-2.35c1.42,0,1.8,1.25,1.8,2.05,0,.16-.02.29-.03.37h-3.06ZM60.1,42.73c0-.5-.21-1.29-1.1-1.29-.8,0-1.15.74-1.22,1.29h2.31Z"/>
        <path d="M61.85,42.16c0-.45,0-.82-.04-1.18h.7l.05.72h.02c.22-.41.72-.82,1.44-.82.6,0,1.54.36,1.54,1.85v2.6h-.79v-2.51c0-.7-.26-1.29-1.01-1.29-.52,0-.93.37-1.06.81-.04.1-.05.23-.05.37v2.62h-.79v-3.18Z"/>
        <path d="M66.73,44.52c.23.15.65.31,1.04.31.58,0,.85-.29.85-.65s-.23-.58-.81-.8c-.78-.28-1.15-.71-1.15-1.23,0-.7.57-1.28,1.5-1.28.44,0,.83.13,1.07.27l-.2.58c-.17-.11-.49-.25-.89-.25-.47,0-.73.27-.73.59,0,.36.26.52.83.74.76.29,1.14.67,1.14,1.31,0,.77-.59,1.31-1.63,1.31-.48,0-.92-.12-1.22-.3l.2-.6Z"/>
        <path d="M73.51,45.17c-.21.11-.67.25-1.25.25-1.31,0-2.17-.89-2.17-2.22s.92-2.31,2.34-2.31c.47,0,.88.12,1.1.23l-.18.61c-.19-.11-.49-.21-.92-.21-1,0-1.54.74-1.54,1.65,0,1.01.65,1.63,1.51,1.63.45,0,.75-.12.97-.22l.14.59Z"/>
        <path d="M74.44,38.94h.79v2.72h.02c.13-.23.32-.42.57-.56.23-.13.51-.23.81-.23.59,0,1.52.36,1.52,1.86v2.59h-.79v-2.5c0-.7-.26-1.3-1.01-1.3-.51,0-.92.36-1.06.79-.04.11-.05.23-.05.38v2.63h-.79v-6.39Z"/>
        <path d="M79.87,43.3c.02,1.07.7,1.51,1.49,1.51.57,0,.91-.1,1.21-.23l.13.57c-.28.13-.76.27-1.45.27-1.34,0-2.14-.88-2.14-2.2s.77-2.35,2.04-2.35c1.42,0,1.8,1.25,1.8,2.05,0,.16-.02.29-.03.37h-3.06ZM82.2,42.73c0-.5-.21-1.29-1.1-1.29-.8,0-1.15.74-1.22,1.29h2.31Z"/>
        <path d="M83.94,42.16c0-.45,0-.82-.04-1.18h.7l.05.72h.02c.22-.41.72-.82,1.44-.82.6,0,1.54.36,1.54,1.85v2.6h-.79v-2.51c0-.7-.26-1.29-1.01-1.29-.52,0-.93.37-1.06.81-.04.1-.05.23-.05.37v2.62h-.79v-3.18Z"/>
        <path d="M91.73,39.75c0,.27-.19.49-.5.49-.28,0-.48-.22-.48-.49s.21-.5.5-.5.49.22.49.5ZM90.84,45.33v-4.36h.79v4.36h-.79Z"/>
        <path d="M92.84,44.52c.23.15.65.31,1.04.31.58,0,.85-.29.85-.65s-.23-.58-.81-.8c-.78-.28-1.15-.71-1.15-1.23,0-.7.57-1.28,1.5-1.28.44,0,.83.13,1.07.27l-.2.58c-.17-.11-.49-.25-.89-.25-.47,0-.73.27-.73.59,0,.36.26.52.83.74.76.29,1.14.67,1.14,1.31,0,.77-.59,1.31-1.63,1.31-.48,0-.92-.12-1.22-.3l.2-.6Z"/>
        <path d="M97.47,39.72v1.25h1.13v.6h-1.13v2.35c0,.54.15.85.59.85.21,0,.36-.03.46-.05l.04.59c-.15.06-.4.11-.7.11-.37,0-.67-.12-.85-.33-.23-.23-.31-.62-.31-1.13v-2.38h-.68v-.6h.68v-1.04l.77-.21Z"/>
        <path d="M105.16,38.94v5.27c0,.39,0,.83.04,1.13h-.71l-.04-.76h-.02c-.24.49-.77.86-1.49.86-1.05,0-1.86-.89-1.86-2.21,0-1.45.89-2.34,1.95-2.34.67,0,1.12.32,1.31.67h.02v-2.6h.79ZM104.37,42.75c0-.1,0-.23-.04-.33-.12-.5-.55-.92-1.14-.92-.82,0-1.31.72-1.31,1.68,0,.88.43,1.61,1.29,1.61.53,0,1.02-.35,1.16-.95.03-.11.04-.22.04-.34v-.76Z"/>
        <path d="M108.89,45.33l-.06-.55h-.03c-.24.34-.71.65-1.33.65-.88,0-1.33-.62-1.33-1.25,0-1.05.94-1.63,2.62-1.62v-.09c0-.36-.1-1.01-.99-1.01-.4,0-.83.13-1.13.32l-.18-.52c.36-.23.88-.39,1.43-.39,1.33,0,1.66.91,1.66,1.78v1.63c0,.38.02.75.07,1.04h-.72ZM108.77,43.11c-.86-.02-1.85.13-1.85.98,0,.51.34.76.75.76.57,0,.93-.36,1.05-.73.03-.08.05-.17.05-.25v-.76Z"/>
        <path d="M110.71,44.52c.23.15.65.31,1.04.31.58,0,.85-.29.85-.65s-.23-.58-.81-.8c-.78-.28-1.15-.71-1.15-1.23,0-.7.57-1.28,1.5-1.28.44,0,.83.13,1.07.27l-.2.58c-.17-.11-.49-.25-.89-.25-.47,0-.73.27-.73.59,0,.36.26.52.83.74.76.29,1.14.67,1.14,1.31,0,.77-.59,1.31-1.63,1.31-.48,0-.92-.12-1.22-.3l.2-.6Z"/>
        <path d="M116.25,45.33c.02-.3.04-.74.04-1.13v-5.27h.78v2.74h.02c.28-.49.78-.8,1.49-.8,1.08,0,1.85.9,1.84,2.22,0,1.56-.98,2.33-1.95,2.33-.63,0-1.13-.24-1.46-.82h-.03l-.04.72h-.68ZM117.07,43.59c0,.1.02.2.04.29.15.55.61.93,1.19.93.83,0,1.32-.68,1.32-1.67,0-.87-.45-1.62-1.3-1.62-.54,0-1.04.37-1.21.97-.02.09-.04.2-.04.32v.78Z"/>
        <path d="M121.85,43.3c.02,1.07.7,1.51,1.49,1.51.57,0,.91-.1,1.21-.23l.13.57c-.28.13-.76.27-1.45.27-1.34,0-2.14-.88-2.14-2.2s.77-2.35,2.04-2.35c1.42,0,1.8,1.25,1.8,2.05,0,.16-.02.29-.03.37h-3.06ZM124.17,42.73c0-.5-.21-1.29-1.1-1.29-.8,0-1.15.74-1.22,1.29h2.31Z"/>
        <path d="M126.23,40.98l.58,2.21c.13.49.24.94.32,1.39h.03c.1-.44.24-.91.39-1.38l.71-2.22h.67l.68,2.18c.16.52.29.98.39,1.42h.03c.07-.44.19-.9.33-1.41l.62-2.19h.78l-1.4,4.36h-.72l-.67-2.08c-.15-.49-.28-.92-.39-1.43h-.02c-.11.52-.24.97-.4,1.44l-.7,2.07h-.72l-1.31-4.36h.81Z"/>
        <path d="M136.19,44.14c0,.45,0,.85.04,1.19h-.7l-.04-.71h-.02c-.21.35-.67.81-1.44.81-.68,0-1.5-.38-1.5-1.91v-2.55h.79v2.41c0,.83.25,1.39.97,1.39.53,0,.9-.37,1.04-.72.04-.12.07-.26.07-.41v-2.67h.79v3.17Z"/>
        <path d="M137.39,44.52c.23.15.65.31,1.04.31.58,0,.85-.29.85-.65s-.23-.58-.81-.8c-.78-.28-1.15-.71-1.15-1.23,0-.7.57-1.28,1.5-1.28.44,0,.83.13,1.07.27l-.2.58c-.17-.11-.49-.25-.89-.25-.47,0-.73.27-.73.59,0,.36.26.52.83.74.76.29,1.14.67,1.14,1.31,0,.77-.59,1.31-1.63,1.31-.48,0-.92-.12-1.22-.3l.2-.6Z"/>
        <path d="M140.96,44.52c.23.15.65.31,1.04.31.58,0,.85-.29.85-.65s-.23-.58-.81-.8c-.78-.28-1.15-.71-1.15-1.23,0-.7.57-1.28,1.5-1.28.44,0,.83.13,1.07.27l-.2.58c-.17-.11-.49-.25-.89-.25-.47,0-.73.27-.73.59,0,.36.26.52.83.74.76.29,1.14.67,1.14,1.31,0,.77-.59,1.31-1.63,1.31-.48,0-.92-.12-1.22-.3l.2-.6Z"/>
        <path d="M145.58,39.72v1.25h1.13v.6h-1.13v2.35c0,.54.15.85.59.85.21,0,.36-.03.46-.05l.04.59c-.15.06-.4.11-.7.11-.37,0-.67-.12-.85-.33-.23-.23-.31-.62-.31-1.13v-2.38h-.68v-.6h.68v-1.04l.77-.21Z"/>
        <path d="M147.42,44.86c0-.33.23-.57.54-.57s.53.23.53.57-.21.57-.54.57c-.32,0-.53-.24-.53-.57Z"/>
        <path d="M152.56,39.93h-1.85v-.67h4.49v.67h-1.85v5.4h-.79v-5.4Z"/>
        <path d="M155.31,42.33c0-.51,0-.95-.04-1.36h.69l.03.86h.04c.2-.59.68-.95,1.21-.95.09,0,.15,0,.22.03v.75c-.08-.02-.16-.03-.27-.03-.56,0-.95.42-1.06,1.02-.02.11-.04.23-.04.37v2.32h-.78v-3Z"/>
        <path d="M162.03,43.12c0,1.61-1.12,2.31-2.17,2.31-1.18,0-2.09-.86-2.09-2.24,0-1.46.95-2.31,2.16-2.31s2.1.91,2.1,2.24ZM158.57,43.16c0,.95.55,1.67,1.32,1.67s1.32-.71,1.32-1.69c0-.74-.37-1.67-1.31-1.67s-1.34.86-1.34,1.69Z"/>
        <path d="M163.98,39.72v1.25h1.13v.6h-1.13v2.35c0,.54.15.85.59.85.21,0,.36-.03.46-.05l.04.59c-.15.06-.4.11-.7.11-.37,0-.67-.12-.85-.33-.23-.23-.31-.62-.31-1.13v-2.38h-.68v-.6h.68v-1.04l.77-.21Z"/>
        <path d="M165.51,44.87l1.97-2.57c.19-.23.37-.44.57-.68v-.02h-2.36v-.64h3.32v.5s-1.95,2.53-1.95,2.53c-.18.24-.36.46-.56.68v.02h2.55v.63h-3.54v-.46Z"/>
        <path d="M173.62,38.94v5.27c0,.39,0,.83.04,1.13h-.71l-.04-.76h-.02c-.24.49-.77.86-1.49.86-1.05,0-1.86-.89-1.86-2.21,0-1.45.89-2.34,1.95-2.34.67,0,1.12.32,1.31.67h.02v-2.6h.79ZM172.83,42.75c0-.1,0-.23-.04-.33-.12-.5-.55-.92-1.14-.92-.82,0-1.31.72-1.31,1.68,0,.88.43,1.61,1.29,1.61.53,0,1.02-.35,1.16-.95.03-.11.04-.22.04-.34v-.76Z"/>
        <path d="M175.37,43.3c.02,1.07.7,1.51,1.49,1.51.57,0,.91-.1,1.21-.23l.13.57c-.28.13-.76.27-1.45.27-1.34,0-2.14-.88-2.14-2.2s.77-2.35,2.04-2.35c1.42,0,1.8,1.25,1.8,2.05,0,.16-.02.29-.03.37h-3.06ZM177.69,42.73c0-.5-.21-1.29-1.1-1.29-.8,0-1.15.74-1.22,1.29h2.31Z"/>
        <path d="M179.44,42.16c0-.45,0-.82-.04-1.18h.69l.04.7h.03c.24-.41.65-.8,1.37-.8.59,0,1.04.36,1.23.87h.02c.14-.24.31-.43.49-.57.26-.2.55-.31.96-.31.58,0,1.43.38,1.43,1.89v2.57h-.77v-2.47c0-.84-.31-1.34-.95-1.34-.45,0-.8.33-.94.72-.04.11-.06.25-.06.4v2.69h-.77v-2.61c0-.69-.31-1.2-.91-1.2-.5,0-.85.4-.98.79-.05.12-.06.25-.06.39v2.63h-.77v-3.18Z"/>
      </g>
      <g>
        <path d="M.55,57.12c.23.15.65.31,1.04.31.58,0,.85-.29.85-.65s-.23-.58-.81-.8c-.78-.28-1.15-.71-1.15-1.23,0-.7.57-1.28,1.5-1.28.44,0,.83.13,1.07.27l-.2.58c-.17-.11-.49-.25-.89-.25-.47,0-.73.27-.73.59,0,.36.26.52.83.74.76.29,1.14.67,1.14,1.31,0,.77-.59,1.31-1.63,1.31-.48,0-.92-.12-1.22-.3l.2-.6Z"/>
        <path d="M8.16,55.72c0,1.61-1.12,2.31-2.17,2.31-1.18,0-2.09-.86-2.09-2.24,0-1.46.95-2.31,2.16-2.31s2.1.91,2.1,2.24ZM4.71,55.76c0,.95.55,1.67,1.32,1.67s1.32-.71,1.32-1.69c0-.74-.37-1.67-1.31-1.67s-1.34.86-1.34,1.69Z"/>
        <path d="M9.16,54.94c0-.51,0-.95-.04-1.36h.69l.03.86h.04c.2-.59.68-.95,1.21-.95.09,0,.15,0,.22.03v.75c-.08-.02-.16-.03-.27-.03-.56,0-.95.42-1.06,1.02-.02.11-.04.23-.04.37v2.32h-.78v-3Z"/>
        <path d="M15.69,53.58c-.02.32-.04.67-.04,1.2v2.53c0,1-.2,1.61-.62,1.99-.42.4-1.04.52-1.58.52s-1.1-.13-1.45-.36l.2-.6c.29.18.74.34,1.28.34.81,0,1.4-.42,1.4-1.52v-.49h-.02c-.24.4-.71.73-1.39.73-1.08,0-1.85-.92-1.85-2.12,0-1.48.96-2.31,1.96-2.31.76,0,1.17.4,1.36.76h.02l.04-.66h.69ZM14.87,55.3c0-.14,0-.25-.05-.36-.14-.46-.53-.84-1.11-.84-.76,0-1.3.64-1.3,1.65,0,.85.43,1.57,1.29,1.57.49,0,.93-.31,1.1-.81.05-.13.06-.29.06-.42v-.78Z"/>
        <path d="M17.92,52.32v1.25h1.13v.6h-1.13v2.35c0,.54.15.85.59.85.21,0,.36-.03.46-.05l.04.59c-.15.06-.4.11-.7.11-.37,0-.67-.12-.85-.33-.23-.23-.31-.62-.31-1.13v-2.38h-.68v-.6h.68v-1.04l.77-.21Z"/>
        <path d="M22.29,55.9c.02,1.07.7,1.51,1.49,1.51.57,0,.91-.1,1.21-.23l.13.57c-.28.13-.76.27-1.45.27-1.34,0-2.14-.88-2.14-2.2s.77-2.35,2.04-2.35c1.42,0,1.8,1.25,1.8,2.05,0,.16-.02.29-.03.37h-3.06ZM24.62,55.33c0-.5-.21-1.29-1.1-1.29-.8,0-1.15.74-1.22,1.29h2.31Z"/>
        <path d="M27.24,52.35c0,.27-.19.49-.5.49-.28,0-.48-.22-.48-.49s.21-.5.5-.5.49.22.49.5ZM26.36,57.93v-4.36h.79v4.36h-.79Z"/>
        <path d="M28.47,54.76c0-.45,0-.82-.04-1.18h.7l.04.72h.02c.22-.41.72-.82,1.44-.82.6,0,1.54.36,1.54,1.85v2.6h-.79v-2.51c0-.7-.26-1.29-1.01-1.29-.52,0-.93.37-1.06.81-.04.1-.05.23-.05.37v2.62h-.79v-3.18Z"/>
        <path d="M35.81,55.9c.02,1.07.7,1.51,1.49,1.51.57,0,.91-.1,1.21-.23l.13.57c-.28.13-.76.27-1.45.27-1.34,0-2.14-.88-2.14-2.2s.77-2.35,2.04-2.35c1.42,0,1.8,1.25,1.8,2.05,0,.16-.02.29-.03.37h-3.06ZM38.13,55.33c0-.5-.21-1.29-1.1-1.29-.8,0-1.15.74-1.22,1.29h2.31Z"/>
        <path d="M39.88,54.94c0-.51,0-.95-.04-1.36h.69l.03.86h.04c.2-.59.68-.95,1.21-.95.09,0,.15,0,.23.03v.75c-.08-.02-.16-.03-.27-.03-.56,0-.95.42-1.06,1.02-.02.11-.04.23-.04.37v2.32h-.78v-3Z"/>
        <path d="M42.71,57.12c.23.15.65.31,1.04.31.58,0,.85-.29.85-.65s-.23-.58-.81-.8c-.78-.28-1.15-.71-1.15-1.23,0-.7.57-1.28,1.5-1.28.44,0,.83.13,1.07.27l-.2.58c-.17-.11-.49-.25-.89-.25-.47,0-.73.27-.73.59,0,.36.26.52.83.74.76.29,1.14.67,1.14,1.31,0,.77-.59,1.31-1.63,1.31-.48,0-.92-.12-1.22-.3l.2-.6Z"/>
        <path d="M47.34,52.32v1.25h1.13v.6h-1.13v2.35c0,.54.15.85.59.85.21,0,.36-.03.46-.05l.04.59c-.15.06-.4.11-.7.11-.37,0-.67-.12-.85-.33-.23-.23-.31-.62-.31-1.13v-2.38h-.68v-.6h.68v-1.04l.77-.21Z"/>
        <path d="M51.75,57.93l-.06-.55h-.03c-.24.34-.71.65-1.33.65-.88,0-1.33-.62-1.33-1.25,0-1.05.94-1.63,2.62-1.62v-.09c0-.36-.1-1.01-.99-1.01-.41,0-.83.13-1.13.32l-.18-.52c.36-.23.88-.39,1.43-.39,1.33,0,1.66.91,1.66,1.78v1.63c0,.38.02.75.07,1.04h-.72ZM51.63,55.71c-.86-.02-1.85.14-1.85.98,0,.51.34.76.75.76.57,0,.93-.36,1.05-.73.03-.08.04-.17.04-.25v-.76Z"/>
        <path d="M57.32,56.74c0,.45,0,.85.04,1.19h-.7l-.04-.71h-.02c-.21.35-.67.81-1.44.81-.68,0-1.5-.38-1.5-1.91v-2.55h.79v2.41c0,.83.25,1.39.97,1.39.53,0,.9-.37,1.04-.72.04-.12.07-.26.07-.41v-2.67h.79v3.17Z"/>
        <path d="M58.63,54.76c0-.45,0-.82-.04-1.18h.7l.05.72h.02c.22-.41.72-.82,1.44-.82.6,0,1.54.36,1.54,1.85v2.6h-.79v-2.51c0-.7-.26-1.29-1.01-1.29-.52,0-.93.37-1.06.81-.04.1-.05.23-.05.37v2.62h-.79v-3.18Z"/>
        <path d="M63.63,51.54h.79v6.39h-.79v-6.39Z"/>
        <path d="M66.64,52.35c0,.27-.19.49-.5.49-.28,0-.48-.22-.48-.49s.21-.5.5-.5.49.22.49.5ZM65.75,57.93v-4.36h.79v4.36h-.79Z"/>
        <path d="M70.96,57.77c-.21.11-.67.25-1.25.25-1.31,0-2.17-.89-2.17-2.22s.92-2.31,2.34-2.31c.47,0,.88.12,1.1.23l-.18.61c-.19-.11-.49-.21-.92-.21-1,0-1.54.74-1.54,1.65,0,1.01.65,1.63,1.51,1.63.45,0,.75-.12.97-.22l.14.59Z"/>
        <path d="M71.89,51.54h.79v2.72h.02c.13-.22.32-.42.57-.56.23-.13.51-.23.81-.23.59,0,1.52.36,1.52,1.86v2.59h-.79v-2.5c0-.7-.26-1.3-1.01-1.3-.51,0-.92.36-1.06.79-.04.11-.05.23-.05.38v2.63h-.79v-6.39Z"/>
        <path d="M82.55,53.58c-.02.32-.04.67-.04,1.2v2.53c0,1-.2,1.61-.62,1.99-.42.4-1.04.52-1.58.52s-1.1-.13-1.45-.36l.2-.6c.29.18.74.34,1.28.34.81,0,1.4-.42,1.4-1.52v-.49h-.02c-.24.4-.71.73-1.39.73-1.08,0-1.85-.92-1.85-2.12,0-1.48.96-2.31,1.96-2.31.76,0,1.17.4,1.36.76h.02l.04-.66h.69ZM81.73,55.3c0-.14,0-.25-.05-.36-.14-.46-.53-.84-1.11-.84-.76,0-1.3.64-1.3,1.65,0,.85.43,1.57,1.29,1.57.49,0,.93-.31,1.1-.81.04-.13.06-.29.06-.42v-.78Z"/>
        <path d="M83.82,54.94c0-.51,0-.95-.04-1.36h.69l.03.86h.04c.2-.59.68-.95,1.21-.95.09,0,.15,0,.23.03v.75c-.08-.02-.16-.03-.27-.03-.56,0-.95.42-1.06,1.02-.02.11-.04.23-.04.37v2.32h-.78v-3Z"/>
        <path d="M90.53,55.72c0,1.61-1.12,2.31-2.17,2.31-1.18,0-2.09-.86-2.09-2.24,0-1.46.95-2.31,2.16-2.31s2.1.91,2.1,2.24ZM87.07,55.76c0,.95.55,1.67,1.32,1.67s1.32-.71,1.32-1.69c0-.74-.37-1.67-1.31-1.67s-1.34.86-1.34,1.69Z"/>
        <path d="M91.53,57.93v-4.07c0-1.03.24-1.6.64-1.96.34-.31.77-.46,1.32-.46.86,0,1.6.54,1.6,1.52,0,.31-.11.59-.21.74-.41.17-.65.42-.65.73s.18.5.46.78c.36.36.73.74.73,1.39,0,.85-.61,1.43-1.61,1.43-.33,0-.69-.05-.95-.19l.14-.6c.23.12.49.18.76.18.58,0,.88-.34.88-.76,0-.38-.16-.63-.49-.93-.38-.36-.7-.69-.7-1.2,0-.46.29-.86.8-1.11.04-.11.08-.23.08-.39,0-.62-.38-.98-.94-.98-.69,0-1.08.49-1.08,1.76v4.1h-.79Z"/>
        <path d="M96.87,55.9c.02,1.07.7,1.51,1.49,1.51.57,0,.91-.1,1.21-.23l.13.57c-.28.13-.76.27-1.45.27-1.34,0-2.14-.88-2.14-2.2s.77-2.35,2.04-2.35c1.42,0,1.8,1.25,1.8,2.05,0,.16-.02.29-.03.37h-3.06ZM99.19,55.33c0-.5-.21-1.29-1.1-1.29-.8,0-1.15.74-1.22,1.29h2.31Z"/>
        <path d="M100.93,54.94c0-.51,0-.95-.04-1.36h.69l.03.86h.04c.2-.59.68-.95,1.21-.95.09,0,.15,0,.22.03v.75c-.08-.02-.16-.03-.27-.03-.56,0-.95.42-1.06,1.02-.02.11-.04.23-.04.37v2.32h-.78v-3Z"/>
        <path d="M106.79,56.02l-.63,1.91h-.81l2.06-6.07h.95l2.07,6.07h-.84l-.65-1.91h-2.15ZM108.78,55.41l-.59-1.75c-.14-.4-.23-.76-.32-1.11h-.02c-.09.36-.19.73-.31,1.1l-.59,1.76h1.83Z"/>
        <path d="M111.29,54.76c0-.45,0-.82-.04-1.18h.7l.05.72h.02c.22-.41.72-.82,1.44-.82.6,0,1.54.36,1.54,1.85v2.6h-.79v-2.51c0-.7-.26-1.29-1.01-1.29-.52,0-.93.37-1.06.81-.04.1-.05.23-.05.37v2.62h-.79v-3.18Z"/>
        <path d="M117.21,52.32v1.25h1.13v.6h-1.13v2.35c0,.54.15.85.59.85.21,0,.36-.03.46-.05l.04.59c-.15.06-.4.11-.7.11-.37,0-.67-.12-.85-.33-.23-.23-.31-.62-.31-1.13v-2.38h-.68v-.6h.68v-1.04l.77-.21Z"/>
        <path d="M119.65,55.9c.02,1.07.7,1.51,1.49,1.51.57,0,.91-.1,1.21-.23l.13.57c-.28.13-.76.27-1.45.27-1.34,0-2.14-.88-2.14-2.2s.77-2.35,2.04-2.35c1.42,0,1.8,1.25,1.8,2.05,0,.16-.02.29-.03.37h-3.06ZM121.98,55.33c0-.5-.21-1.29-1.1-1.29-.8,0-1.15.74-1.22,1.29h2.31Z"/>
        <path d="M124.6,52.35c0,.27-.19.49-.5.49-.28,0-.48-.22-.48-.49s.21-.5.5-.5.49.22.49.5ZM123.72,57.93v-4.36h.79v4.36h-.79Z"/>
        <path d="M125.83,51.54h.79v6.39h-.79v-6.39Z"/>
        <path d="M133.61,53.58c-.02.32-.04.67-.04,1.2v2.53c0,1-.2,1.61-.62,1.99-.42.4-1.04.52-1.58.52s-1.1-.13-1.45-.36l.2-.6c.29.18.74.34,1.28.34.81,0,1.4-.42,1.4-1.52v-.49h-.02c-.24.4-.71.73-1.39.73-1.08,0-1.85-.92-1.85-2.12,0-1.48.96-2.31,1.96-2.31.76,0,1.17.4,1.36.76h.02l.04-.66h.69ZM132.79,55.3c0-.14,0-.25-.05-.36-.14-.46-.53-.84-1.11-.84-.76,0-1.3.64-1.3,1.65,0,.85.43,1.57,1.29,1.57.49,0,.93-.31,1.1-.81.05-.13.06-.29.06-.42v-.78Z"/>
        <path d="M137.21,57.93l-.06-.55h-.03c-.24.34-.71.65-1.33.65-.88,0-1.33-.62-1.33-1.25,0-1.05.94-1.63,2.62-1.62v-.09c0-.36-.1-1.01-.99-1.01-.4,0-.83.13-1.13.32l-.18-.52c.36-.23.88-.39,1.43-.39,1.33,0,1.66.91,1.66,1.78v1.63c0,.38.02.75.07,1.04h-.72ZM137.1,55.71c-.86-.02-1.85.14-1.85.98,0,.51.34.76.75.76.57,0,.93-.36,1.05-.73.03-.08.05-.17.05-.25v-.76Z"/>
        <path d="M139.14,54.94c0-.51,0-.95-.04-1.36h.69l.03.86h.04c.2-.59.68-.95,1.21-.95.09,0,.15,0,.22.03v.75c-.08-.02-.16-.03-.27-.03-.56,0-.95.42-1.06,1.02-.02.11-.04.23-.04.37v2.32h-.78v-3Z"/>
        <path d="M143.99,54.76c0-.45,0-.82-.04-1.18h.7l.05.72h.02c.22-.41.72-.82,1.44-.82.6,0,1.54.36,1.54,1.85v2.6h-.79v-2.51c0-.7-.26-1.29-1.01-1.29-.52,0-.93.37-1.06.81-.04.1-.05.23-.05.37v2.62h-.79v-3.18Z"/>
        <path d="M149.87,52.35c0,.27-.19.49-.5.49-.28,0-.48-.22-.48-.49s.21-.5.5-.5.49.22.49.5ZM148.98,57.93v-4.36h.79v4.36h-.79Z"/>
        <path d="M154.2,57.77c-.21.11-.67.25-1.25.25-1.31,0-2.17-.89-2.17-2.22s.92-2.31,2.34-2.31c.47,0,.88.12,1.1.23l-.18.61c-.19-.11-.49-.21-.92-.21-1,0-1.54.74-1.54,1.65,0,1.01.65,1.63,1.51,1.63.45,0,.75-.12.97-.22l.14.59Z"/>
        <path d="M155.12,51.54h.79v2.72h.02c.13-.22.32-.42.57-.56.23-.13.51-.23.81-.23.59,0,1.52.36,1.52,1.86v2.59h-.79v-2.5c0-.7-.26-1.3-1.01-1.3-.51,0-.92.36-1.06.79-.04.11-.05.23-.05.38v2.63h-.79v-6.39Z"/>
        <path d="M161.07,52.32v1.25h1.13v.6h-1.13v2.35c0,.54.15.85.59.85.21,0,.36-.03.46-.05l.04.59c-.15.06-.4.11-.7.11-.37,0-.67-.12-.85-.33-.23-.23-.31-.62-.31-1.13v-2.38h-.68v-.6h.68v-1.04l.77-.21Z"/>
        <path d="M168.95,55.72c0,1.61-1.12,2.31-2.17,2.31-1.18,0-2.09-.86-2.09-2.24,0-1.46.95-2.31,2.16-2.31s2.1.91,2.1,2.24ZM165.49,55.76c0,.95.55,1.67,1.32,1.67s1.32-.71,1.32-1.69c0-.74-.37-1.67-1.31-1.67s-1.34.86-1.34,1.69Z"/>
        <path d="M173.71,51.54v5.27c0,.39,0,.83.04,1.13h-.71l-.04-.76h-.02c-.24.49-.77.86-1.49.86-1.05,0-1.86-.89-1.86-2.21,0-1.45.89-2.34,1.95-2.34.67,0,1.12.32,1.31.67h.02v-2.6h.79ZM172.92,55.35c0-.1,0-.23-.04-.33-.12-.5-.55-.92-1.14-.92-.82,0-1.31.72-1.31,1.68,0,.88.43,1.61,1.29,1.61.53,0,1.02-.35,1.16-.95.03-.11.04-.22.04-.34v-.76Z"/>
        <path d="M175.46,55.9c.02,1.07.7,1.51,1.49,1.51.57,0,.91-.1,1.21-.23l.13.57c-.28.13-.76.27-1.45.27-1.34,0-2.14-.88-2.14-2.2s.77-2.35,2.04-2.35c1.42,0,1.8,1.25,1.8,2.05,0,.16-.02.29-.03.37h-3.06ZM177.78,55.33c0-.5-.21-1.29-1.1-1.29-.8,0-1.15.74-1.22,1.29h2.31Z"/>
        <path d="M179.53,54.94c0-.51,0-.95-.04-1.36h.69l.03.86h.04c.2-.59.68-.95,1.21-.95.09,0,.15,0,.22.03v.75c-.08-.02-.16-.03-.27-.03-.56,0-.95.42-1.06,1.02-.02.11-.04.23-.04.37v2.32h-.78v-3Z"/>
      </g>
      <g>
        <path d="M1.44,68.17h.02c.11-.15.26-.34.39-.5l1.28-1.5h.95l-1.68,1.79,1.92,2.57h-.96l-1.5-2.09-.41.45v1.64h-.78v-6.39h.78v4.03Z"/>
        <path d="M7.2,70.53l-.06-.55h-.03c-.24.34-.71.65-1.33.65-.88,0-1.33-.62-1.33-1.25,0-1.05.94-1.63,2.62-1.62v-.09c0-.36-.1-1.01-.99-1.01-.4,0-.83.13-1.13.32l-.18-.52c.36-.23.88-.39,1.43-.39,1.33,0,1.66.91,1.66,1.78v1.63c0,.38.02.75.07,1.04h-.72ZM7.08,68.31c-.86-.02-1.85.13-1.85.98,0,.51.34.76.75.76.57,0,.93-.36,1.05-.73.03-.08.05-.17.05-.25v-.76Z"/>
        <path d="M12.77,69.34c0,.45,0,.85.04,1.19h-.7l-.04-.71h-.02c-.21.35-.67.81-1.44.81-.68,0-1.5-.38-1.5-1.91v-2.55h.79v2.41c0,.83.25,1.39.97,1.39.53,0,.9-.37,1.04-.72.04-.12.07-.26.07-.41v-2.67h.79v3.17Z"/>
        <path d="M14.08,67.36c0-.45,0-.82-.04-1.18h.69l.04.7h.03c.24-.41.65-.8,1.37-.8.59,0,1.04.36,1.23.87h.02c.14-.24.31-.43.49-.57.26-.2.55-.31.96-.31.58,0,1.43.38,1.43,1.89v2.57h-.77v-2.47c0-.84-.31-1.34-.95-1.34-.45,0-.8.33-.94.72-.04.11-.06.25-.06.4v2.69h-.77v-2.61c0-.69-.31-1.2-.91-1.2-.5,0-.85.4-.98.79-.05.12-.06.25-.06.39v2.63h-.77v-3.18Z"/>
        <path d="M23.58,70.53v-3.75h-.61v-.6h.61v-.21c0-.61.13-1.17.5-1.52.3-.29.69-.4,1.06-.4.28,0,.52.06.68.13l-.11.61c-.12-.05-.28-.1-.5-.1-.68,0-.85.59-.85,1.26v.23h1.05v.6h-1.05v3.75h-.78Z"/>
        <path d="M29.72,69.34c0,.45,0,.85.04,1.19h-.7l-.04-.71h-.02c-.21.35-.67.81-1.44.81-.68,0-1.5-.38-1.5-1.91v-2.55h.79v2.41c0,.83.25,1.39.97,1.39.53,0,.9-.37,1.04-.72.04-.12.07-.26.07-.41v-2.67h.79v3.17ZM26.63,64.94c0-.25.21-.46.46-.46s.44.2.44.46c0,.24-.18.46-.44.46s-.46-.22-.46-.46ZM28.31,64.94c0-.25.2-.46.45-.46s.44.2.44.46c0,.24-.18.46-.44.46s-.45-.22-.45-.46Z"/>
        <path d="M31.03,67.54c0-.51,0-.95-.04-1.36h.69l.03.86h.04c.2-.59.68-.95,1.21-.95.09,0,.15,0,.23.03v.75c-.08-.02-.16-.03-.27-.03-.56,0-.95.42-1.06,1.02-.02.11-.04.23-.04.37v2.32h-.78v-3Z"/>
        <path d="M35.77,69.72c.23.15.65.31,1.04.31.58,0,.85-.29.85-.65s-.23-.58-.81-.8c-.78-.28-1.15-.71-1.15-1.23,0-.7.57-1.28,1.5-1.28.44,0,.83.13,1.07.27l-.2.58c-.17-.11-.49-.25-.89-.25-.47,0-.73.27-.73.59,0,.36.26.52.83.74.76.29,1.14.67,1.14,1.31,0,.77-.59,1.31-1.63,1.31-.48,0-.92-.12-1.22-.3l.2-.6Z"/>
        <path d="M39.45,67.6c0-.56-.02-1.01-.04-1.42h.71l.04.75h.02c.32-.53.84-.85,1.55-.85,1.05,0,1.85.89,1.85,2.21,0,1.57-.95,2.34-1.98,2.34-.58,0-1.08-.25-1.34-.68h-.02v2.37h-.78v-4.72ZM40.23,68.76c0,.12.02.23.04.32.14.55.62.93,1.19.93.84,0,1.32-.68,1.32-1.68,0-.87-.46-1.62-1.3-1.62-.54,0-1.04.39-1.2.98-.03.1-.05.22-.05.32v.75Z"/>
        <path d="M46.98,70.53l-.06-.55h-.03c-.24.34-.71.65-1.33.65-.88,0-1.33-.62-1.33-1.25,0-1.05.94-1.63,2.62-1.62v-.09c0-.36-.1-1.01-.99-1.01-.4,0-.83.13-1.13.32l-.18-.52c.36-.23.88-.39,1.43-.39,1.33,0,1.66.91,1.66,1.78v1.63c0,.38.02.75.07,1.04h-.72ZM44.79,64.94c0-.25.21-.46.46-.46s.44.2.44.46c0,.24-.18.46-.44.46s-.46-.22-.46-.46ZM46.86,68.31c-.86-.02-1.85.13-1.85.98,0,.51.34.76.75.76.57,0,.93-.36,1.05-.73.03-.08.05-.17.05-.25v-.76ZM46.47,64.94c0-.25.2-.46.45-.46s.44.2.44.46c0,.24-.18.46-.44.46s-.45-.22-.45-.46Z"/>
        <path d="M49.86,64.92v1.25h1.13v.6h-1.13v2.35c0,.54.15.85.59.85.21,0,.36-.03.46-.05l.04.59c-.15.06-.4.11-.7.11-.37,0-.67-.12-.85-.33-.23-.23-.31-.62-.31-1.13v-2.38h-.68v-.6h.68v-1.04l.77-.21Z"/>
        <path d="M52.29,68.5c.02,1.07.7,1.51,1.49,1.51.57,0,.91-.1,1.21-.23l.13.57c-.28.13-.76.27-1.45.27-1.34,0-2.14-.88-2.14-2.2s.77-2.35,2.04-2.35c1.42,0,1.8,1.25,1.8,2.05,0,.16-.02.29-.03.37h-3.06ZM54.61,67.93c0-.5-.21-1.29-1.1-1.29-.8,0-1.15.74-1.22,1.29h2.31Z"/>
        <path d="M56.36,67.54c0-.51,0-.95-.04-1.36h.69l.03.86h.04c.2-.59.68-.95,1.21-.95.09,0,.15,0,.22.03v.75c-.08-.02-.16-.03-.27-.03-.56,0-.95.42-1.06,1.02-.02.11-.04.23-.04.37v2.32h-.78v-3Z"/>
        <path d="M61.51,66.18l.85,2.45c.14.4.26.76.35,1.12h.03c.1-.36.23-.72.37-1.12l.85-2.45h.83l-1.71,4.36h-.76l-1.66-4.36h.85Z"/>
        <path d="M69.35,68.32c0,1.61-1.12,2.31-2.17,2.31-1.18,0-2.09-.86-2.09-2.24,0-1.46.95-2.31,2.16-2.31s2.1.91,2.1,2.24ZM65.9,68.36c0,.95.55,1.67,1.32,1.67s1.32-.71,1.32-1.69c0-.74-.37-1.67-1.31-1.67s-1.34.86-1.34,1.69Z"/>
        <path d="M70.35,67.54c0-.51,0-.95-.04-1.36h.69l.03.86h.04c.2-.59.68-.95,1.21-.95.09,0,.15,0,.23.03v.75c-.08-.02-.16-.03-.27-.03-.56,0-.95.42-1.06,1.02-.02.11-.04.23-.04.37v2.32h-.78v-3Z"/>
        <path d="M73.11,70.06c0-.33.23-.57.54-.57s.53.23.53.57-.21.57-.54.57c-.32,0-.53-.24-.53-.57Z"/>
      </g>
    </g>
  </g>
</svg>