<?xml version="1.0" encoding="UTF-8"?>
<svg id="Ebene_1" xmlns="http://www.w3.org/2000/svg" viewBox="0 0 1188.48 872.16">
  <defs>
    <style>
      .cls-1 {
        fill: none;
        fill-rule: evenodd;
      }
    </style>
  </defs>
  <path class="cls-1" d="M1188.48,872.16h-44.4c-6.88-6.56-13.76-13.12-20.64-19.68l-9.12-9.12c-13.6-12.08-27.2-24.16-40.8-36.24-7.68-6.96-15.36-13.92-23.04-20.88-2.72-3.2-5.44-6.4-8.16-9.6h-79.44c-34.32-.48-68.64-.96-102.96-1.44-28-.32-56-.64-84-.96-51.67-.08-103.37-.16-155.04-.24-30.08-.08-60.16-.16-90.24-.24-16-.16-32-.32-48-.48-16-.4-32-.8-48-1.2-28.88-.64-57.76-1.28-86.64-1.92-32.72-1.28-65.44-2.56-98.16-3.84-18.96-.88-37.92-1.76-56.88-2.64-6.24-.16-12.48-.32-18.72-.48-6.24-.08-12.48-.16-18.72-.24-9.76-.32-19.52-.64-29.28-.96-15.9-2.41-34.29-1.85-51.6-1.92h-21.12c-4.16-.08-8.32-.16-12.48-.24-5.84-.56-11.68-1.12-17.52-1.68l.24-.48c5.6-2.56,11.2-5.12,16.8-7.68.8-31.28,1.6-62.56,2.4-93.84.32-17.44.64-34.88.96-52.32.48-26.08.96-52.16,1.44-78.24.24-33.52.48-67.04.72-100.56.08-9.28.16-18.56.24-27.84v-60.72c0-56.41.71-113.11-.24-168.72-5.06.19-7.6.3-11.04-1.44-8.72-22.96-17.44-45.92-26.16-68.88-4.57.12-6.04-1.41-8.88-2.88,2.14-8.32,9.1-8.78,17.04-11.28,12.8-4.88,25.6-9.76,38.4-14.64,32.98-13.12,64.01-30.72,96.24-44.64,13.44-5.12,26.88-10.24,40.32-15.36l5.52-5.52c125.43.64,250.89,1.28,376.32,1.92,15.84.08,31.68.16,47.52.24,18.32-.16,36.64-.32,54.96-.48,32.08-.32,64.16-.64,96.24-.96,46.64-.08,93.28-.16,139.92-.24,35.92-.08,71.84-.16,107.76-.24,8.56-.16,17.12-.32,25.68-.48,11.23-1.68,30.91-.92,41.76.72,4.31.65,8.69-.57,12.24-1.2,10.04-1.78,19.32-2.4,30.96-2.4h10.08c11.28,2.07,21.33,5.16,31.68,8.4,5.28,1.6,10.56,3.2,15.84,4.8v858.96Z"/>
</svg>